<svg width="300" height="293" viewBox="0 0 300 293" fill="none" xmlns="http://www.w3.org/2000/svg">
<rect width="300" height="293" rx="10" fill="#DFE5FF"/>
<rect x="15" y="12" width="271" height="271" rx="10" fill="#F0F2FD"/>
<path d="M153.978 81.8167V91.6334L155.461 91.9992C158.876 92.8732 163.002 94.743 166.375 96.9584C172.432 100.901 177.046 106.084 180.298 112.608C181.334 114.681 183.245 119.844 183.245 120.616C183.245 120.961 183.854 120.982 193.122 120.982H203L202.858 119.6C202.451 115.352 201.354 110.332 200.033 106.714C193.305 88.0969 176.619 74.7031 157.229 72.3049C155.847 72.1423 154.547 72 154.343 72C153.998 72 153.978 72.5487 153.978 81.8167Z" fill="#404040"/>
<path d="M140.259 84.6215C133.409 85.2718 125.605 88.0563 119.751 91.9179C116.581 94.0113 114.975 95.3121 112.211 98.0965C105.301 105.027 100.971 113.584 99.3658 123.522C98.8781 126.632 98.8781 133.624 99.3658 136.733C101.114 147.546 105.992 156.611 114.02 164.009C120.645 170.126 128.938 174.09 138.226 175.594C141.336 176.081 148.104 176.081 151.335 175.594C160.969 174.11 169.383 169.984 176.395 163.277C182.289 157.647 187.005 149.639 189.057 141.713C190.155 137.526 190.785 131.449 190.48 128.441L190.318 127.079L184.302 127.038L178.286 126.978L177.92 124.986C176.456 116.836 172.92 110.372 166.985 105.047C162.372 100.901 157.026 98.3608 150.421 97.121L147.982 96.6738L147.921 90.6578L147.88 84.6621L146.925 84.5198C145.726 84.3572 142.576 84.3979 140.259 84.6215ZM150.116 103.198C153.53 103.889 157.209 105.434 160.278 107.466C162.229 108.767 166.192 112.73 167.493 114.681C169.566 117.811 171.009 121.287 171.802 125.047C172.29 127.445 172.29 132.811 171.802 135.209C170.603 140.981 168.164 145.493 164.058 149.538C159.973 153.582 155.624 155.899 149.913 157.098C147.514 157.586 142.149 157.586 139.75 157.098C133.999 155.899 129.487 153.46 125.422 149.355C121.397 145.29 119.06 140.92 117.861 135.209C117.373 132.811 117.373 127.445 117.861 125.047C119.06 119.336 121.397 114.966 125.422 110.901C129.995 106.287 135.442 103.625 141.986 102.812C143.348 102.649 148.612 102.893 150.116 103.198Z" fill="#404040"/>
<path d="M138.978 109.722C136.946 110.312 135.137 111.124 133.531 112.141C132.881 112.547 132.291 112.933 132.251 112.994C132.19 113.035 133.064 113.99 134.161 115.088L136.194 117.12L133.999 119.295L131.824 121.49L129.791 119.457C127.474 117.141 127.82 117.12 126.316 119.722C125.381 121.368 124.182 124.64 123.979 126.124L123.836 127.079H126.722H129.588V130.128V133.176H126.722H123.836L123.979 134.132C124.182 135.615 125.381 138.888 126.316 140.534C127.82 143.135 127.474 143.115 129.791 140.798L131.824 138.766L133.999 140.961L136.194 143.135L134.161 145.168C131.844 147.485 131.824 147.139 134.425 148.643C136.072 149.578 139.344 150.777 140.828 150.981L141.783 151.123V148.237V145.371H144.832H147.88V148.237V151.123L148.835 150.981C150.319 150.777 153.591 149.578 155.238 148.643C157.839 147.139 157.819 147.485 155.502 145.168L153.469 143.135L155.664 140.961L157.839 138.766L159.872 140.798C162.189 143.115 161.843 143.135 163.347 140.534C164.282 138.888 165.481 135.615 165.684 134.132L165.827 133.176H162.941H160.075V130.128V127.079H162.941H165.827L165.684 126.124C165.481 124.64 164.282 121.368 163.347 119.722C161.843 117.12 162.189 117.141 159.872 119.457L157.839 121.49L155.664 119.295L153.469 117.12L155.502 115.088C157.819 112.771 157.839 113.116 155.238 111.612C153.591 110.677 150.319 109.478 148.835 109.275L147.88 109.133V112.019V114.885H144.832H141.783V112.039V109.194L141.234 109.214C140.909 109.214 139.913 109.438 138.978 109.722ZM146.701 121.205C148.449 121.592 149.913 122.405 151.234 123.726C156.498 128.969 153.632 137.851 146.275 139.111C143.409 139.599 140.584 138.684 138.429 136.53C134.812 132.953 134.812 127.282 138.429 123.726C140.726 121.449 143.673 120.555 146.701 121.205Z" fill="#404040"/>
<path d="M143.368 127.506C142.494 127.953 141.783 129.152 141.783 130.128C141.783 131.632 143.327 133.177 144.811 133.177C146.376 133.177 147.88 131.673 147.88 130.128C147.88 129.112 147.169 127.953 146.254 127.486C145.258 126.978 144.344 126.978 143.368 127.506Z" fill="#404040"/>
</svg>
