<svg width="300" height="293" viewBox="0 0 300 293" fill="none" xmlns="http://www.w3.org/2000/svg">
<rect width="300" height="293" rx="10" fill="#DFE5FF"/>
<rect x="14" y="11" width="271" height="271" rx="10" fill="#F0F2FD"/>
<path fill-rule="evenodd" clip-rule="evenodd" d="M130.175 111.875C124.611 118.552 114.887 120.461 107.104 115.967C98.3981 110.941 95.4154 99.8093 100.442 91.1037C105.468 82.3981 116.599 79.4154 125.305 84.4416C132.771 88.7523 136.028 97.5542 133.633 105.465L139.149 108.649C140.055 109.172 140.692 110.059 140.898 111.085C141.104 112.11 140.859 113.175 140.225 114.007L140.198 114.043C139.008 115.606 136.791 115.945 135.19 114.806C135.014 114.681 134.831 114.563 134.641 114.453L130.175 111.875ZM106.747 94.744C109.762 89.5206 116.441 87.731 121.665 90.7467C126.59 93.5902 128.462 99.6906 126.132 104.757C126.03 104.888 125.936 105.027 125.851 105.175C125.721 105.4 125.618 105.633 125.54 105.871C122.47 110.935 115.898 112.638 110.744 109.662C105.521 106.646 103.731 99.9673 106.747 94.744Z" fill="#404040"/>
<path fill-rule="evenodd" clip-rule="evenodd" d="M155.512 107.589C150.785 109.035 146.735 111.816 143.733 115.442C141.463 118.184 139.789 121.412 138.871 124.918C138.379 126.796 138.105 128.752 138.071 130.752C138.03 133.164 136.727 135.378 134.638 136.584L129.984 139.271C124.39 132.777 114.799 130.962 107.104 135.405C98.3981 140.431 95.4154 151.563 100.442 160.269C105.468 168.974 116.599 171.957 125.305 166.931C132.861 162.568 136.106 153.605 133.544 145.622L200.177 107.152C201.452 106.416 202.158 104.984 201.966 103.524C201.774 102.064 200.721 100.864 199.299 100.483L195.404 99.4394C190.791 98.2033 185.924 98.2885 181.357 99.6853L155.512 107.589ZM110.744 141.71C105.521 144.726 103.731 151.405 106.747 156.628C109.762 161.852 116.441 163.641 121.665 160.626C126.888 157.61 128.678 150.931 125.662 145.708C122.646 140.484 115.967 138.695 110.744 141.71ZM148.967 129.326C150.978 129.326 152.608 127.696 152.608 125.685C152.608 123.675 150.978 122.045 148.967 122.045C146.957 122.045 145.327 123.675 145.327 125.685C145.327 127.696 146.957 129.326 148.967 129.326Z" fill="#404040"/>
<path d="M170.187 128.67C171.313 128.02 172.701 128.02 173.827 128.67L200.18 143.885C201.455 144.621 202.161 146.053 201.969 147.513C201.777 148.973 200.724 150.173 199.302 150.554L195.407 151.598C190.794 152.834 185.926 152.749 181.359 151.352L156.379 143.712C154.993 143.288 153.991 142.083 153.827 140.643C153.663 139.203 154.369 137.803 155.624 137.078L170.187 128.67Z" fill="#404040"/>
</svg>
