<svg width="300" height="293" viewBox="0 0 300 293" fill="none" xmlns="http://www.w3.org/2000/svg">
<rect width="300" height="293" rx="10" fill="#DFE5FF"/>
<rect x="15" y="12" width="271" height="271" rx="10" fill="#F0F2FD"/>
<path d="M137.919 91L130.976 72.4803C130.683 71.6997 129.937 71.1825 129.103 71.1825L98.2489 71.1825C96.7564 71.1825 95.7898 72.758 96.4659 74.0886L109.292 99.3273C110.079 100.876 110.489 102.588 110.489 104.325V104.325C110.489 105.227 110.379 106.125 110.16 107L106.555 121.42C106.181 122.916 106.087 124.467 106.279 125.997V125.997C106.418 127.116 106.709 128.211 107.143 129.252L107.63 130.421C108.52 132.557 109.965 134.415 111.816 135.803V135.803C112.596 136.388 113.439 136.883 114.329 137.278L117.489 138.683L131.475 144.011C136.107 145.776 140.349 148.427 143.965 151.817V151.817C145.644 153.391 147.178 155.114 148.546 156.965L150.54 159.663C153.479 163.639 157.157 167.017 161.368 169.608V169.608C161.448 169.658 161.534 169.7 161.623 169.733V169.733C166.796 171.673 172.35 172.377 177.843 171.788L183.489 171.183L191.382 169.868C192.097 169.748 192.748 169.381 193.22 168.831V168.831C194.426 167.423 194.13 165.277 192.588 164.249L179.413 155.465C178.135 154.614 176.967 153.609 175.934 152.473L165.402 140.887C163.468 138.76 161.812 136.396 160.473 133.851L137.489 90.183" stroke="#404040" stroke-width="4"/>
<path d="M97 72.5L130 73L136.5 91.5L161.5 137.5L193 166L191 168.5L179 170.5L165 169.5L157.5 166.5L153 160.5L146.5 152L133 143L117 137.5L109 131.5L107.5 125.5L108 122.5L111 100L97 72.5Z" fill="#404040"/>
<rect x="192.435" y="158.575" width="5" height="29" rx="2.5" transform="rotate(-133.109 192.435 158.575)" fill="#404040"/>
<path d="M209.975 142.105L208.899 143.1L201.704 143.064L202.759 142.069L209.975 142.105Z" fill="#909090"/>
<path d="M204.579 147.237L203.48 148.231L196.214 148.195L197.269 147.2L204.579 147.237Z" fill="#909090"/>
<path d="M199.383 152.052L198.328 153.047L191.035 153.01L192.13 152.016L199.383 152.052Z" fill="#909090"/>
</svg>
