<svg width="300" height="293" viewBox="0 0 300 293" fill="none" xmlns="http://www.w3.org/2000/svg">
<rect width="300" height="293" rx="10" fill="#DFE5FF"/>
<rect x="15" y="12" width="271" height="271" rx="10" fill="#F0F2FD"/>
<path d="M104.519 64.9053C102.527 66.9846 99.4629 72.3688 99.0908 74.4261C98.6969 76.593 99.6161 79.2851 101.236 80.7077C102.658 81.9553 104.212 82.5243 106.182 82.5024C107.671 82.5024 108.13 82.393 109.203 81.8677C111.326 80.8171 112.836 78.6722 113.186 76.2428C113.471 74.3386 112.332 71.5808 109.597 67.4661C107.101 63.7453 106.095 63.2419 104.519 64.9053ZM107.517 71.5371C109.159 74.2511 109.487 75.2141 109.159 76.2647C108.48 78.5847 105.81 79.3726 103.994 77.7967C102.921 76.8337 102.658 75.7613 103.184 74.3605C103.753 72.8722 105.854 69.4578 106.138 69.5672C106.27 69.611 106.883 70.4865 107.517 71.5371Z" fill="#404040"/>
<path d="M160.79 70.1364C159.061 70.6835 157.135 72.2813 156.347 73.7915C155.756 74.9515 155.537 76.7025 155.537 80.0949V83.4436L153.94 83.5531C152.867 83.6187 151.948 83.8376 151.138 84.2097C149.869 84.8006 114.171 108.767 112.267 110.321C109.684 112.4 107.714 115.596 107.058 118.66C106.576 120.958 106.576 164.229 107.058 166.133C107.517 167.949 108.743 170.335 109.925 171.67C111.238 173.18 113.733 174.8 115.725 175.457L117.345 175.982H147.111H176.877L178.453 175.413C182.677 173.859 185.763 170.51 186.836 166.33C187.208 164.907 187.273 163.9 187.273 159.895V155.145L188.215 155.014C189.856 154.795 192.898 153.548 194.649 152.41C199.508 149.236 202.551 144.114 202.966 138.424C203.185 135.184 202.354 132.12 199.858 126.955C197.582 122.249 194.387 117.128 189.659 110.518L187.295 107.235L187.23 98.5894L187.164 89.966L186.464 88.4995C185.632 86.7486 184.341 85.3916 182.633 84.4942L181.408 83.8595L181.32 79.6791C181.211 74.8421 181.014 74.0541 179.46 72.3469C178.913 71.7341 177.95 70.9681 177.337 70.6398L176.221 70.0488L168.779 70.005C164.686 69.9831 161.097 70.0488 160.79 70.1364ZM175.673 74.2073C176.024 74.3824 176.527 74.8421 176.811 75.236C177.293 75.9145 177.315 76.1991 177.381 79.7229L177.468 83.5093H168.451H159.433L159.521 79.7229C159.586 75.5643 159.718 75.1266 161.119 74.2949C161.709 73.9228 162.344 73.879 168.407 73.879C173.835 73.879 175.148 73.9447 175.673 74.2073ZM180.598 87.8648C181.079 88.0837 181.736 88.5433 182.064 88.8935C183.29 90.2067 183.334 90.5131 183.334 98.5019V105.834L181.32 108.504C173.966 118.266 168.538 127.896 167.006 133.806C166.525 135.622 166.459 136.235 166.568 138.117C166.809 142.735 168.626 146.785 171.953 150.046C174.535 152.607 178.256 154.533 181.802 155.102L183.334 155.364V159.939C183.334 163.966 183.29 164.666 182.874 165.848C182.042 168.343 180.379 170.182 177.884 171.364L176.439 172.042H147.001H117.563L115.988 171.298C114.062 170.401 112.245 168.606 111.369 166.746L110.778 165.476L110.713 143.042C110.669 127.568 110.735 120.258 110.888 119.47C111.26 117.741 112.332 115.771 113.711 114.37C114.609 113.429 119.796 109.817 133.541 100.559C143.784 93.6868 152.451 87.9086 152.801 87.7554C153.327 87.5365 156.26 87.4708 166.59 87.4708C178.913 87.449 179.766 87.4927 180.598 87.8648ZM186.88 113.385C192.57 121.374 196.729 128.618 198.326 133.324C199.486 136.76 199.246 140 197.538 143.48C196.794 144.99 196.269 145.69 194.737 147.2C191.782 150.133 188.849 151.359 184.756 151.359C180.664 151.359 177.731 150.133 174.776 147.2C173.244 145.69 172.719 144.99 171.974 143.48C169.304 138.008 170.07 133.827 175.454 124.438C178.322 119.492 184.581 110.255 184.888 110.605C184.953 110.693 185.873 111.94 186.88 113.385Z" fill="#404040"/>
<path d="M152.473 97.4732C150.722 98.1954 121.481 117.171 120.649 118.113C119.03 120.017 118.811 122.687 120.102 125.095C121.415 127.568 123.188 128.903 125.508 129.187C127.697 129.428 127.916 129.297 143.499 118.507C151.51 112.969 158.426 108.066 158.886 107.629C160.134 106.403 160.659 105.134 160.659 103.317C160.659 101.522 160.134 100.231 158.886 98.9396C157.31 97.32 154.465 96.6633 152.473 97.4732ZM156.128 101.785C156.413 102.091 156.697 102.595 156.763 102.923C157.113 104.28 156.96 104.389 142.427 114.457C134.854 119.71 128.157 124.307 127.544 124.679C125.859 125.729 124.83 125.401 123.604 123.344C123.057 122.402 123.013 121.68 123.539 120.892C123.779 120.498 129.492 116.69 138.903 110.649C153.37 101.325 153.918 100.997 154.771 101.106C155.362 101.172 155.8 101.413 156.128 101.785Z" fill="#404040"/>
<path d="M125.136 158.932C124.217 159.698 124.173 160.967 125.027 161.755L125.618 162.302H146.826C162.541 162.302 168.166 162.237 168.516 162.04C169.742 161.405 169.917 160.004 168.91 158.997L168.276 158.363H147.045H125.815L125.136 158.932Z" fill="#404040"/>
<path d="M191.957 134.353C191.476 134.769 191.323 135.141 191.191 136.322C190.775 139.759 188.434 142.101 184.932 142.604C183.181 142.845 182.458 143.458 182.458 144.705C182.458 145.909 183.246 146.544 184.691 146.544C188.302 146.544 192.176 144.136 193.818 140.897C194.628 139.299 195.153 137.417 195.153 136.125C195.153 134.178 193.336 133.171 191.957 134.353Z" fill="#404040"/>
<path d="M122.532 74.4262C121.678 75.1266 119.052 79.0006 118.045 81.0142C116.381 84.3191 116.25 85.9606 117.476 88.4777C118.68 90.9509 120.978 92.3735 123.823 92.3735C125.246 92.3735 125.683 92.2641 126.931 91.6513C129.076 90.6007 130.389 88.8278 130.827 86.464C131.243 84.2535 130.302 81.8459 127.369 77.4466C126.471 76.0896 125.443 74.7326 125.071 74.4262C124.239 73.7258 123.363 73.7258 122.532 74.4262ZM125.027 81.0142C125.596 81.9116 126.296 83.2467 126.581 83.9689C127.237 85.5886 127.04 86.6173 125.88 87.6459C124.48 88.8716 122.663 88.7403 121.416 87.3395C120.452 86.2233 120.343 85.3259 121.065 83.7938C121.788 82.218 123.539 79.3508 123.801 79.3508C123.911 79.3508 124.458 80.0949 125.027 81.0142Z" fill="#404040"/>
</svg>
