<svg width="300" height="293" viewBox="0 0 300 293" fill="none" xmlns="http://www.w3.org/2000/svg">
<rect width="300" height="293" rx="10" fill="#DFE5FF"/>
<rect x="15" y="12" width="271" height="271" rx="10" fill="#F0F2FD"/>
<path d="M119.834 78.285C118.183 78.8204 117.045 79.6682 114.77 81.966C112.695 84.0854 112.583 84.2639 112.717 84.9331C112.896 85.8478 113.23 86.1824 114.123 86.3609C114.792 86.4948 114.993 86.3609 117.246 84.1746C119.767 81.7652 120.548 81.3191 122.31 81.3191C123.47 81.3191 124.363 81.7429 126.683 83.4607L128.735 84.9554L114.926 98.7647C107.341 106.35 101.05 112.552 100.916 112.552C100.603 112.552 97.8595 108.692 97.5248 107.8C97.391 107.421 97.2571 106.684 97.2571 106.194C97.2348 104.364 97.7925 103.65 104.708 96.7123C111.847 89.5511 111.892 89.4842 110.732 88.3464C109.594 87.1863 109.527 87.2087 102.187 94.526C94.2008 102.513 94 102.803 94 106.194C94 107.889 94.0892 108.38 94.58 109.428C95.1601 110.633 103.191 121.765 103.883 122.301C104.686 122.948 105.467 122.658 107.073 121.096L108.635 119.601L109.549 120.538L110.486 121.453L109.259 122.747C107.162 124.956 105.757 127.343 104.82 130.287C104.061 132.652 103.95 137.203 104.574 139.813C106.002 145.837 110.219 150.7 115.974 152.998C116.778 153.31 117.804 153.623 118.25 153.712C119.031 153.868 119.098 153.935 119.455 155.14C120.169 157.594 121.128 159.2 123.113 161.208C124.563 162.68 125.389 163.305 126.594 163.885L128.177 164.643L128.289 168.213C128.401 172.318 128.668 173.232 130.051 174.437C132.372 176.423 135.785 175.954 137.413 173.433C138.127 172.362 138.15 172.34 139.265 172.34C140.358 172.34 140.425 172.385 140.849 173.165C141.474 174.303 142.968 175.396 144.173 175.575C146.315 175.909 147.854 175.24 149.215 173.389C149.951 172.407 150.063 172.34 151.044 172.34C151.981 172.34 152.137 172.407 152.427 172.965C153.208 174.482 155.171 175.686 156.889 175.686C158.585 175.686 160.682 174.415 161.262 173.009C161.53 172.385 161.619 172.34 162.734 172.34C163.805 172.34 163.961 172.407 164.251 172.965C165.724 175.82 169.472 176.534 171.948 174.437C173.554 173.054 173.621 172.675 173.755 164.666L173.866 157.549L175.049 157.259C176.61 156.858 178.462 155.921 179.511 155.028C180.113 154.515 180.693 154.27 181.474 154.158C184.463 153.757 188.434 152.217 189.84 150.901C190.643 150.143 190.71 149.206 189.974 148.514C189.26 147.845 188.657 147.889 187.051 148.804C186.27 149.228 185.066 149.786 184.374 150.031C183.192 150.433 183.102 150.433 183.259 150.076C183.348 149.875 183.571 149.094 183.749 148.358C183.906 147.622 184.084 146.908 184.129 146.774C184.173 146.64 184.731 146.216 185.4 145.837C187.542 144.632 189.394 142.446 190.42 139.925C191.111 138.252 191.357 134.995 190.933 133.009C190.554 131.18 189.304 128.837 187.966 127.387L186.783 126.16L187.966 125L189.148 123.84L190.063 124.71C190.554 125.201 191.401 126.25 191.937 127.053C193.766 129.819 194.502 132.273 194.502 135.642C194.502 138.363 193.967 140.505 192.695 142.847C191.825 144.498 191.691 144.989 191.959 145.681C192.182 146.261 193.342 146.662 194.056 146.439C195.149 146.06 196.8 142.714 197.514 139.456C198.049 137.025 197.893 132.518 197.179 130.287C196.242 127.343 194.837 124.956 192.74 122.747L191.513 121.453L192.45 120.538L193.365 119.601L194.926 121.096C196.532 122.658 197.313 122.948 198.116 122.301C198.808 121.765 206.839 110.633 207.419 109.428C207.91 108.402 207.999 107.889 207.999 106.194C207.999 102.624 208.312 103.026 195.462 90.2204C183.192 78.0173 183.482 78.2404 180.425 78.0173C178.864 77.9058 176.878 78.352 175.785 79.0435C174.446 79.8913 164.251 87.4317 163.894 87.8333C163.113 88.7257 163.359 89.4842 164.987 91.1574L166.482 92.719L160.816 98.3855L155.127 104.074H151H146.872L141.184 98.3855L135.517 92.719L137.012 91.1574C138.64 89.4842 138.886 88.7257 138.127 87.8333C137.347 86.9633 126.638 79.2666 125.389 78.7089C123.872 77.995 121.306 77.7942 119.834 78.285ZM181.429 81.5868C182.21 81.8099 183.906 83.3938 193.03 92.4513C204.363 103.74 204.787 104.208 204.742 106.194C204.742 106.684 204.608 107.421 204.474 107.8C204.14 108.692 201.396 112.552 201.084 112.552C200.95 112.552 194.659 106.35 187.073 98.7647L173.264 84.9554L175.339 83.4384C176.477 82.613 177.726 81.7875 178.083 81.6314C178.953 81.2521 180.225 81.2521 181.429 81.5868ZM134.268 89.0603C134.357 89.1495 105.244 118.352 105.043 118.352C104.931 118.352 103.214 115.965 103.057 115.608C103.013 115.497 109.393 108.982 117.201 101.174L131.435 86.9186L132.795 87.9672C133.554 88.5249 134.201 89.0157 134.268 89.0603ZM198.964 115.497C198.964 115.72 197.112 118.33 196.956 118.352C196.889 118.352 190.264 111.771 182.232 103.74C168.468 89.975 167.642 89.1049 168.066 88.8149C168.311 88.6364 168.958 88.1456 169.516 87.7218L170.52 86.9409L184.753 101.13C192.561 108.938 198.964 115.407 198.964 115.497ZM138.551 100.438L143.861 105.747L132.885 116.724C126.839 122.769 121.797 127.722 121.663 127.722C121.529 127.722 119.075 125.357 116.198 122.479L110.955 117.237L112.227 115.965L113.52 114.693L116.131 117.281C117.581 118.687 119.12 120.025 119.544 120.248C120.592 120.806 122.756 120.806 123.783 120.271C125.634 119.289 126.549 117.817 126.549 115.787C126.549 113.957 126.17 113.333 123.158 110.254L120.57 107.644L122.042 106.149L123.537 104.654L126.348 107.376C128.824 109.763 129.293 110.12 130.386 110.455C134.513 111.659 138.06 107.354 136.12 103.517C135.919 103.16 134.602 101.665 133.197 100.215L130.609 97.6047L131.814 96.3777C132.483 95.7084 133.085 95.1507 133.152 95.1507C133.197 95.1507 135.651 97.5377 138.551 100.438ZM170.185 96.3777L171.39 97.6047L168.802 100.215C165.456 103.628 164.943 104.654 165.501 106.93C166.148 109.652 168.892 111.236 171.613 110.455C172.706 110.12 173.175 109.763 175.651 107.376L178.462 104.654L179.957 106.149L181.429 107.644L178.841 110.254C175.83 113.333 175.45 113.957 175.45 115.787C175.45 117.817 176.365 119.289 178.217 120.271C179.243 120.806 181.407 120.806 182.455 120.248C182.879 120.025 184.419 118.687 185.869 117.281L188.479 114.693L189.773 115.965L191.044 117.237L185.802 122.479C182.924 125.357 180.47 127.722 180.336 127.722C180.225 127.722 175.16 122.769 169.137 116.746L158.139 105.747L163.426 100.46C166.348 97.5377 168.78 95.1507 168.847 95.1507C168.914 95.1507 169.516 95.7084 170.185 96.3777ZM130.743 102.468C133.152 104.9 133.621 105.658 133.152 106.528C132.929 106.974 132.104 107.421 131.546 107.421C131.412 107.421 130.118 106.238 128.646 104.811L126.014 102.2L127.062 101.13C127.642 100.549 128.177 100.059 128.244 100.059C128.311 100.059 129.449 101.13 130.743 102.468ZM174.937 101.13L175.986 102.2L173.353 104.811C171.881 106.238 170.587 107.421 170.453 107.421C169.36 107.421 168.49 106.439 168.735 105.457C168.869 104.944 173.398 100.059 173.755 100.059C173.822 100.059 174.357 100.549 174.937 101.13ZM166.75 119.044L178.373 130.667L177.793 132.541C177.481 133.567 177.168 134.415 177.101 134.415C177.034 134.415 172.283 130.979 166.504 126.785C160.749 122.613 155.461 118.932 154.792 118.598C153.699 118.084 153.297 118.017 151 118.017C146.783 118.017 147.185 117.727 135.874 128.815C130.676 133.924 126.326 138.118 126.214 138.163C126.125 138.207 125.5 136.556 124.831 134.482L123.626 130.734L135.249 119.066L146.872 107.421H151H155.127L166.75 119.044ZM121.641 113.556C123.426 115.296 123.693 116.01 122.779 116.902C121.842 117.861 121.462 117.661 118.607 114.85L115.974 112.239L117.023 111.169L118.071 110.098L119.522 111.481C120.302 112.262 121.262 113.176 121.641 113.556ZM184.976 111.169L186.025 112.239L183.392 114.85C180.537 117.661 180.158 117.861 179.221 116.902C178.574 116.277 178.529 115.764 179.02 115.006C179.444 114.381 183.616 110.098 183.794 110.098C183.861 110.098 184.396 110.589 184.976 111.169ZM153.454 121.721C155.707 122.725 157.023 124.799 157.023 127.276C157.001 130.756 154.458 133.299 151 133.299C147.542 133.299 144.999 130.756 144.976 127.276C144.976 123.818 147.519 121.252 151 121.252C151.981 121.252 152.784 121.408 153.454 121.721ZM114.078 125.045L115.216 126.16L114.078 127.365C112.807 128.704 111.736 130.577 111.2 132.385C110.799 133.768 110.732 136.913 111.089 138.43C111.825 141.643 114.39 144.766 117.514 146.305L119.432 147.242L119.12 148.826C118.785 150.678 118.875 150.656 116.309 149.473C112.182 147.577 109.17 143.985 107.921 139.434C107.519 137.939 107.452 137.27 107.564 134.995C107.675 131.894 108.122 130.265 109.527 127.9C110.33 126.54 112.494 123.929 112.807 123.929C112.896 123.929 113.454 124.442 114.078 125.045ZM166.661 131.068L169.918 133.411L168.311 133.968C167.441 134.281 166.214 134.839 165.612 135.195C164.965 135.575 160.994 139.278 156.019 144.141L147.542 152.44L147.386 150.566C147.096 146.707 145.802 143.941 143.08 141.219C140.381 138.519 137.146 137.114 133.599 137.092H132.149L136.833 132.541L141.518 128.012L141.674 128.815C142.299 132.318 144.976 135.329 148.3 136.289C153.944 137.939 159.946 133.924 160.325 128.235L160.436 126.606L161.909 127.677C162.734 128.257 164.876 129.774 166.661 131.068ZM121.886 136.155L123.381 140.907L122.533 141.844C122.042 142.379 121.462 143.093 121.217 143.427L120.771 144.052L119.499 143.561C117.715 142.892 115.952 141.241 115.037 139.367C114.346 137.962 114.301 137.739 114.301 135.53C114.301 133.388 114.368 133.076 114.948 131.938C115.283 131.247 116.041 130.198 116.599 129.64L117.625 128.592L119.008 129.997L120.369 131.403L121.886 136.155ZM185.802 130.042C187.297 131.782 187.877 133.545 187.787 136.043C187.676 138.386 186.806 140.304 185.11 141.888L183.95 142.959L183.459 141.62C182.857 139.925 182.076 138.586 180.961 137.337L180.091 136.333L180.894 133.812C181.652 131.448 181.786 131.202 183.013 129.953C184.486 128.48 184.419 128.48 185.802 130.042ZM174.09 137.002C182.032 139.055 183.147 149.808 175.785 153.444C174.424 154.114 174.179 154.158 171.97 154.158C169.918 154.158 169.472 154.091 168.401 153.578C166.616 152.73 164.965 151.146 164.14 149.451C161.663 144.454 164.385 138.453 169.739 137.002C171.346 136.579 172.483 136.579 174.09 137.002ZM136.32 140.884C141.674 142.535 144.954 148.023 143.838 153.422C142.768 158.531 138.373 162.1 133.152 162.1C126.237 162.1 121.061 155.809 122.466 149.094C123.76 142.892 130.297 139.01 136.32 140.884ZM159.923 146.685C159.946 148.626 161.173 151.593 162.667 153.288L163.537 154.27H156.978L150.442 154.247L155.015 149.83C157.915 146.997 159.656 145.48 159.745 145.636C159.834 145.792 159.923 146.261 159.923 146.685ZM151.892 163.305V168.994H151H150.107V163.305V157.616H151H151.892V163.305ZM158.473 164.599V171.492L157.938 171.916C157.224 172.496 156.443 172.452 155.796 171.782L155.238 171.247V164.42V157.594L156.867 157.661L158.473 157.728V164.599ZM163.716 163.305V168.994H162.823H161.931V163.305V157.616H162.823H163.716V163.305ZM170.364 163.863C170.386 167.231 170.364 170.332 170.297 170.734C170.029 172.228 168.602 172.831 167.575 171.849L167.062 171.381V164.487V157.594L168.691 157.661L170.297 157.728L170.364 163.863ZM146.761 164.643V171.247L146.203 171.782C145.913 172.095 145.4 172.34 145.088 172.34C144.775 172.34 144.262 172.095 143.972 171.782L143.415 171.247V166.272V161.297L145.021 159.691C145.913 158.798 146.672 158.062 146.694 158.062C146.739 158.062 146.761 161.029 146.761 164.643ZM140.068 166.428V168.994H139.176H138.283V166.807V164.621L139.02 164.242C139.399 164.063 139.801 163.885 139.912 163.885C140.001 163.863 140.068 165.023 140.068 166.428ZM134.937 168.391C134.937 171.068 134.893 171.358 134.446 171.827C133.599 172.742 132.26 172.407 131.836 171.202C131.591 170.511 131.479 165.826 131.702 165.625C131.747 165.558 132.505 165.513 133.375 165.491L134.937 165.469V168.391Z" fill="#404040"/>
<path d="M170.341 140.75C168.244 141.531 166.995 143.315 166.995 145.546C166.995 148.357 169.137 150.477 171.97 150.477C176.075 150.477 178.35 146.104 176.075 142.624C174.982 140.928 172.26 140.036 170.341 140.75ZM172.706 144.029C174.268 144.743 173.777 147.13 172.081 147.13C170.408 147.13 169.717 145.368 170.944 144.297C171.613 143.717 171.925 143.672 172.706 144.029Z" fill="#404040"/>
<path d="M131.01 146.774C127.753 148.291 127.129 152.753 129.85 155.05C130.877 155.92 131.836 156.277 133.152 156.277C137.391 156.277 139.666 151.526 137.056 148.09C136.275 147.108 134.491 146.238 133.152 146.238C132.572 146.238 131.68 146.461 131.01 146.774ZM134.201 150.031C134.87 150.633 135.004 151.258 134.669 151.972C133.777 153.868 130.81 152.596 131.59 150.678C132.081 149.54 133.331 149.205 134.201 150.031Z" fill="#404040"/>
</svg>
