<svg width="300" height="248" viewBox="0 0 300 248" fill="none" xmlns="http://www.w3.org/2000/svg">
<rect y="58.0818" width="300" height="189.918" rx="10" fill="#DAE0FC"/>
<path d="M222.12 56.8885C219.781 57.9909 217.435 59.0968 215.256 60.5529C214.266 61.2115 213.317 61.9396 212.299 62.5393C211.204 63.191 210.04 63.6833 208.886 64.2103C205.7 65.6639 202.606 67.3572 199.626 69.2786C199.883 65.5519 199.396 61.5027 197.401 58.5976C197.108 58.1671 196.782 57.7658 196.426 57.3981C195.015 55.9352 193.013 55.5573 191.626 54.2781C192.47 52.621 194.344 51.1164 195.62 49.8511C196.997 48.4898 198.427 47.199 199.908 45.9787C202.869 43.5362 206.021 41.3978 209.326 39.5895C211.424 38.4421 213.615 37.4159 215.93 37.0658C216.221 36.9924 216.526 37.0227 216.802 37.1524C217.162 37.3743 217.292 37.8735 217.379 38.3207C217.81 40.5568 218.031 42.8517 218.391 45.1051C218.567 46.2632 218.806 47.4081 219.107 48.5337C219.494 49.8648 219.941 51.1734 220.445 52.4546C221.005 53.9314 221.564 55.4094 222.12 56.8885Z" fill="#FBBEBE"/>
<path d="M155.71 120.08C155.709 124.682 154.407 129.166 151.99 132.892C149.573 136.619 146.164 139.397 142.249 140.83C138.335 142.263 134.115 142.279 130.192 140.874C126.27 139.469 122.844 136.716 120.405 133.008C117.938 129.262 116.608 124.731 116.61 120.08C116.61 114.288 118.67 108.733 122.336 104.637C126.003 100.541 130.975 98.2397 136.16 98.2397C141.345 98.2397 146.318 100.541 149.984 104.637C153.65 108.733 155.71 114.288 155.71 120.08Z" fill="#FFA9AC"/>
<path d="M129.157 139.327C130.202 141.342 131.257 143.373 131.928 145.567C132.598 147.762 132.859 150.192 132.306 152.435C138.966 148.518 146.891 148.833 154.221 146.85C154.417 146.825 154.597 146.719 154.726 146.552C154.771 146.438 154.794 146.316 154.794 146.191C154.794 146.067 154.771 145.945 154.726 145.831C153.192 139.487 152.602 132.905 152.979 126.348L149.153 128.875C147.478 130.031 145.743 131.073 143.955 131.995C141.426 133.233 138.742 133.982 136.101 134.848C134.01 135.542 129.858 136.44 128.542 138.481C128.779 138.732 128.986 139.016 129.157 139.327Z" fill="#FFA9AC"/>
<path d="M118.385 109.957C117.113 110.529 115.617 111.188 114.448 110.387C113.588 109.794 113.234 108.564 113.287 107.437C113.34 106.31 113.725 105.242 114.029 104.168C114.649 101.959 114.984 99.661 115.676 97.4631C116.368 95.2652 117.498 93.147 119.292 91.9857C122.593 89.8502 126.866 91.6147 130.531 90.4326C132.083 89.9368 133.433 88.9384 134.876 88.1549C136.319 87.3715 137.941 86.7682 139.499 87.1877C141.324 87.6627 142.671 89.3787 144.371 90.2523C146.233 91.2091 148.461 91.1433 150.155 92.4225C151.356 93.3308 152.114 94.7972 152.787 96.2359C154.941 100.86 156.642 105.73 157.861 110.761C158.348 112.563 158.626 114.427 158.689 116.308C158.705 118.714 158.121 121.072 157.544 123.394L156.613 127.069C156.269 128.456 155.915 129.842 155.263 131.097C154.612 132.352 153.606 133.41 152.362 133.774C150.81 134.221 149.004 133.354 148.328 131.732C147.912 130.726 147.931 129.575 147.909 128.47C147.874 126.304 147.667 124.146 147.288 122.021C147.096 120.957 146.838 119.851 146.19 119.047C145.352 118.007 144.017 117.66 142.776 117.636C141.324 117.615 139.732 118.055 138.885 119.369C138.205 120.43 138.087 121.921 137.184 122.749C136.783 123.093 136.306 123.31 135.803 123.377C134.779 123.52 133.741 123.274 132.857 122.68C131.972 122.086 131.291 121.178 130.922 120.101C130.637 119.186 130.497 118.049 129.721 117.619C129.318 117.393 128.837 117.435 128.406 117.289C127.084 116.842 126.736 114.97 126.615 113.434C126.475 111.635 127.012 108.082 125.011 107.96C122.854 107.829 120.368 109.219 118.385 109.957Z" fill="#3F3D56"/>
<path d="M123.074 133.631C122.385 134.002 121.631 134.436 121.361 135.233C121.256 135.545 121.237 135.888 121.141 136.207C120.703 137.618 118.997 137.895 118.115 139.019C117.718 139.586 117.451 140.254 117.337 140.964C116.748 143.761 116.938 146.693 117.883 149.367C118.156 150.214 118.578 150.992 119.124 151.655C120.7 153.451 123.419 153.416 125.383 152.192C127.347 150.968 128.703 148.823 129.855 146.645C130.465 145.55 130.975 144.388 131.378 143.179C131.732 141.949 131.985 140.685 132.132 139.403C132.821 134.408 133.721 128.868 133.411 123.803C132.48 123.737 130.702 123.665 129.879 124.316C128.849 125.134 129.135 126.785 128.762 127.981C127.881 130.858 125.324 132.376 123.074 133.631Z" fill="#3F3D56"/>
<path d="M123.881 134.294C122.717 134.373 120.632 132.935 119.465 133.007C118.671 131.459 117.969 129.854 117.365 128.203C117.985 127.208 118.984 126.965 120.496 128.203C121.709 129.156 123.385 132.453 123.881 134.294Z" fill="#3F3D56"/>
<path d="M141.423 79.5193C140.16 80.2647 139.378 80.2993 138.755 80.1503C138.131 80.0012 136.893 80.6945 136.893 80.6945C125.954 84.8754 125.523 86.848 125.523 86.848L138.187 81.8524C140.623 80.6599 140.669 81.0793 140.669 81.0793C142.531 83.0346 144.902 81.7103 144.902 81.7103C144.902 81.7103 148.182 79.9769 147.217 78.3094C146.252 76.6419 142.689 78.7878 141.423 79.5193ZM146.699 79.2073C146.699 79.2073 145.768 81.9807 142.419 81.53C142.419 81.53 140.775 81.2596 141.47 79.8903C141.47 79.8903 144.883 78.2886 145.786 78.403C146.689 78.5174 146.689 79.2212 146.689 79.2212L146.699 79.2073Z" fill="#E8E8F0"/>
<path opacity="0.1" d="M141.423 79.5193C140.16 80.2647 139.378 80.2993 138.755 80.1503C138.131 80.0012 136.893 80.6945 136.893 80.6945C125.954 84.8754 125.523 86.848 125.523 86.848L138.187 81.8524C140.623 80.6599 140.669 81.0793 140.669 81.0793C142.531 83.0346 144.902 81.7103 144.902 81.7103C144.902 81.7103 148.182 79.9769 147.217 78.3094C146.252 76.6419 142.689 78.7878 141.423 79.5193ZM146.699 79.2073C146.699 79.2073 145.768 81.9807 142.419 81.53C142.419 81.53 140.775 81.2596 141.47 79.8903C141.47 79.8903 144.883 78.2886 145.786 78.403C146.689 78.5174 146.689 79.2212 146.689 79.2212L146.699 79.2073Z" fill="black"/>
<path d="M142.118 71.7885C140.225 71.8578 139.831 73.4387 139.831 73.4387C139.452 73.9439 139.23 74.5728 139.198 75.231C139.166 75.8892 139.326 76.5411 139.654 77.0891L136.294 80.8228C135.657 81.0973 135.109 81.5807 134.723 82.2095C134.723 82.2095 127.344 89.4896 127.453 90.1518C127.453 90.1518 128.657 90.8451 136.294 83.0692L138.298 81.0863C138.298 81.0863 138.742 77.3803 141.873 76.6766C141.873 76.6766 142.183 76.8291 142.348 76.004C142.523 75.6084 142.757 75.2486 143.04 74.9398C143.456 74.5099 144.011 71.7157 142.118 71.7885ZM142.649 74.2949C142.649 74.2949 141.634 77.2209 140.188 76.375C138.742 75.5291 140.148 73.5773 140.148 73.5773C142.655 70.8525 142.649 74.2949 142.649 74.2949Z" fill="#E8E8F0"/>
<path opacity="0.1" d="M136.359 82.2788C136.58 82.2788 136.759 82.0786 136.759 81.8316C136.759 81.5846 136.58 81.3844 136.359 81.3844C136.138 81.3844 135.959 81.5846 135.959 81.8316C135.959 82.0786 136.138 82.2788 136.359 82.2788Z" fill="black"/>
<path d="M171.378 67.6908C170.21 67.0034 168.997 66.4147 167.75 65.9297C166.093 65.4047 164.39 65.0792 162.67 64.959C157.238 64.3813 151.789 64.0461 146.323 63.9537C145.358 63.9537 144.371 63.9294 143.456 64.3004C142.638 64.6509 141.897 65.1936 141.284 65.8916C140.22 67.0272 139.376 68.3932 138.801 69.9061C138.617 70.2851 138.561 70.7261 138.646 71.1472C138.77 71.5493 139.266 71.8162 139.549 71.532C138.827 72.1824 138.296 73.0604 138.026 74.052C137.756 75.0436 137.759 76.103 138.035 77.0926C137.604 77.3443 137.238 77.7158 136.974 78.1712C136.709 78.6267 136.554 79.1507 136.523 79.6927C138.779 80.1593 141.102 80.0335 143.307 79.3252C142.649 79.138 141.969 79.8279 141.929 80.5836C141.933 80.9633 142.032 81.3342 142.213 81.6554C142.394 81.9766 142.651 82.2356 142.956 82.4036C143.572 82.729 144.25 82.8791 144.93 82.8404C147.558 82.8404 150.115 81.8455 152.737 81.7172C154.742 81.6167 156.809 82.0223 158.723 81.3706C160.945 80.6009 162.928 78.4204 165.218 78.8745C167.046 79.2385 168.237 81.1348 169.429 82.7226C171.334 85.2568 173.69 87.3091 176.026 89.344C177.826 90.911 179.707 92.5196 181.938 93.05C182.606 93.2533 183.314 93.2157 183.961 92.9425C184.502 92.6191 184.956 92.1404 185.277 91.5558C187.682 87.7424 187.685 82.941 187.545 78.4724C187.474 76.1878 187.027 75.8792 185.134 74.9328C182.937 73.8304 180.748 72.7014 178.568 71.5458C176.16 70.2886 173.763 69.0036 171.378 67.6908Z" fill="#FBBEBE"/>
<path d="M196.529 76.2468C196.159 76.4938 195.768 76.6993 195.362 76.8604C194.682 77.0407 193.99 76.7183 193.329 76.4687C190.537 75.4287 187.433 75.6748 184.734 74.3887C185.619 80.0657 184.46 85.9036 181.51 90.6303C180.951 91.5178 180.215 92.4261 179.247 92.4954C179.679 93.9757 181.007 94.8701 182.267 95.5357C184.279 96.5995 186.383 97.429 188.547 98.011C189.168 98.1739 189.925 98.2536 190.285 97.6643C190.502 97.3176 190.596 96.7248 190.977 96.7456C191.561 97.439 191.368 98.8603 192.175 99.1723C192.426 99.2439 192.69 99.2439 192.941 99.1723L194.741 98.8257C195.281 98.7734 195.801 98.5734 196.256 98.2432C196.54 97.9672 196.775 97.633 196.948 97.2587C198.965 93.421 199.74 88.9801 200.051 84.5947C200.203 82.4176 200.392 80.1088 200.259 77.9247C200.135 76.0527 197.987 75.4876 196.529 76.2468Z" fill="#E8E8F0"/>
<path opacity="0.1" d="M196.529 76.2468C196.159 76.4938 195.768 76.6993 195.362 76.8604C194.682 77.0407 193.99 76.7183 193.329 76.4687C190.537 75.4287 187.433 75.6748 184.734 74.3887C185.619 80.0657 184.46 85.9036 181.51 90.6303C180.951 91.5178 180.215 92.4261 179.247 92.4954C179.679 93.9757 181.007 94.8701 182.267 95.5357C184.279 96.5995 186.383 97.429 188.547 98.011C189.168 98.1739 189.925 98.2536 190.285 97.6643C190.502 97.3176 190.596 96.7248 190.977 96.7456C191.561 97.439 191.368 98.8603 192.175 99.1723C192.426 99.2439 192.69 99.2439 192.941 99.1723L194.741 98.8257C195.281 98.7734 195.801 98.5734 196.256 98.2432C196.54 97.9672 196.775 97.633 196.948 97.2587C198.965 93.421 199.74 88.9801 200.051 84.5947C200.203 82.4176 200.392 80.1088 200.259 77.9247C200.135 76.0527 197.987 75.4876 196.529 76.2468Z" fill="black"/>
<path d="M92.5021 188.697C91.6178 187.428 90.7085 186.083 89.399 185.414C88.6446 185.074 87.8503 184.857 87.0406 184.769C82.6745 184.076 78.2991 183.355 73.8926 183.22C72.4527 183.175 70.9074 183.22 69.7344 184.159C68.3907 185.23 67.8725 187.203 67.798 189.044C67.7178 191.236 68.1074 193.417 68.9343 195.407C69.7612 197.397 71.0015 199.138 72.552 200.484C75.1897 202.73 78.5225 203.67 81.7746 204.412C83.4844 204.803 85.2036 205.154 86.9289 205.452C88.6542 205.75 90.4106 205.986 92.077 206.582C95.6394 207.858 98.7829 210.742 102.519 210.981C102.695 211.011 102.874 210.977 103.031 210.884C103.195 210.736 103.305 210.527 103.341 210.295C104.164 207.053 107.016 199.291 103.341 197.024C101.421 195.842 99.2887 195.79 97.4082 194.289C95.5277 192.788 93.9296 190.746 92.5021 188.697Z" fill="#FFA9AC"/>
<path d="M61.1324 210.215C58.715 207.865 55.3792 206.62 53.6228 203.628C52.8501 202.311 52.4591 200.765 52.0712 199.246L50.9293 194.663C50.8413 194.382 50.8013 194.084 50.8113 193.786C50.8982 192.829 51.9067 192.375 52.757 192.226C57.1014 191.47 61.6258 193.426 64.8779 196.733C68.13 200.04 70.2184 204.602 71.4442 209.331C71.5304 209.572 71.5435 209.837 71.4814 210.087C71.3752 210.309 71.2076 210.486 71.0035 210.593C69.4333 211.633 67.3232 213.148 65.4892 213.467C63.6553 213.786 62.4388 211.47 61.1324 210.215Z" fill="#FFA9AC"/>
<path d="M167.192 190.455L179.915 196.144C181.122 196.683 182.115 197.689 182.714 198.978C183.313 200.267 183.477 201.754 183.176 203.167L173.708 247.656H150.038L154.159 197.042C154.159 197.042 163.158 188.721 167.192 190.455Z" fill="#3F3D56"/>
<path d="M179.48 185.116C179.244 185.691 178.897 186.26 178.949 186.887C178.981 187.262 179.154 187.615 179.129 187.986C179.08 188.714 178.326 189.12 177.674 189.127C177.022 189.134 176.368 188.898 175.725 189.023C174.67 189.224 173.957 190.309 173.044 190.937C171.772 191.81 170.183 191.758 168.7 191.907C165.597 192.219 162.661 193.519 159.853 195C157.944 196.005 155.918 197.295 155.198 199.506C154.165 202.626 156.169 205.913 156.613 209.213C156.732 210.324 156.761 211.445 156.7 212.562C156.374 224.217 155.812 236.008 155.217 247.649L41.4678 247.798L47.0689 236.833C52.5305 226.138 58.1379 215.242 66.3767 207.064C67.5988 205.831 68.9718 204.799 70.4542 203.999L77.0608 210.586C77.5897 211.174 78.2034 211.658 78.8762 212.018C80.1174 212.583 81.5076 212.26 82.8389 212.309C85.399 212.403 87.7388 213.862 89.9606 215.287C91.5903 216.275 93.1579 217.386 94.6526 218.611C95.5276 219.36 96.7906 219.828 97.703 220.518L97.4888 208.073C97.4671 206.949 97.4516 205.798 97.7526 204.727C98.336 202.647 100.002 201.177 100.803 199.198C101.166 198.307 101.343 197.336 101.647 196.424C102.077 195.252 102.611 194.132 103.242 193.079L107.36 185.688C108.378 183.864 109.392 182.041 110.497 180.283C115.329 172.584 121.833 166.416 128.16 160.228C128.013 158.465 128.378 156.695 129.2 155.181C129.524 154.677 129.793 154.131 130 153.555C130.134 152.872 130.173 152.171 130.115 151.475C130.115 151.298 130.115 151.128 130.115 150.941C130.184 149.807 130.608 148.737 131.313 147.918C132.039 147.075 133.011 146.562 133.966 146.084C138.912 143.613 144.055 141.665 149.327 140.267C150.168 140.045 151.058 139.837 151.887 140.118C152.138 141.023 152.995 141.342 153.851 141.57L154.4 141.712C155.855 142.063 157.212 142.803 158.354 143.869C159.555 145.041 160.38 146.607 161.184 148.15C167.226 159.739 170.009 174.945 179.356 183.365C179.809 183.764 179.716 184.561 179.48 185.116Z" fill="#7C79B0"/>
<path opacity="0.1" d="M217.596 42.772C214.325 50.8044 207.88 58.719 199.464 58.719C198.777 58.7194 198.091 58.6813 197.407 58.6046C197.114 58.1741 196.788 57.7727 196.433 57.4051C195.021 55.9421 193.019 55.5643 191.632 54.285C192.476 52.6279 194.35 51.1234 195.626 49.858C197.004 48.4968 198.433 47.206 199.914 45.9857C202.875 43.5432 206.027 41.4048 209.332 39.5965C211.43 38.449 213.621 37.4229 215.936 37.0727C216.228 36.9993 216.532 37.0296 216.808 37.1594C217.168 37.3813 217.298 37.8805 217.385 38.3277C217.816 40.5464 217.236 40.5186 217.596 42.772Z" fill="black"/>
<path d="M199.464 58.0222C210.947 58.0222 220.255 47.6231 220.255 34.7951C220.255 21.9671 210.947 11.568 199.464 11.568C187.982 11.568 178.673 21.9671 178.673 34.7951C178.673 47.6231 187.982 58.0222 199.464 58.0222Z" fill="#FBBEBE"/>
<path d="M242.763 112.044C242.424 114.852 241.834 117.615 241 120.291C240.69 121.266 240.308 122.216 239.914 123.152C237.602 128.625 236.333 134.543 235.728 140.561C235.681 141.035 235.604 141.505 235.495 141.965C235.039 143.907 234.077 145.64 233.341 147.467C232.591 149.441 231.969 151.471 231.48 153.544C231.303 154.064 231.243 154.625 231.306 155.177C231.421 155.763 231.799 156.217 232.066 156.748C233.444 159.4 231.852 162.641 231.315 165.643C231.132 166.683 231.051 167.813 230.446 168.625C229.931 169.318 229.13 169.637 228.37 169.928C217.534 174.044 206.442 177.269 195.185 179.579C193.506 179.926 191.772 180.249 190.105 179.902C188.439 179.555 186.779 178.404 186.208 176.608C185.879 175.568 185.935 174.438 185.963 173.336C186.025 171.02 185.963 168.69 185.851 166.357C185.491 158.679 184.675 150.972 186.472 143.616C187.008 141.445 187.766 139.352 188.374 137.206C189.562 133.021 189.869 128.695 190.167 124.354C190.413 120.777 190.651 117.185 191.368 113.656C191.902 111.025 191.548 108.29 191.517 105.593C191.456 99.4204 193.079 93.3739 196.172 88.2589C196.709 87.3749 197.298 86.5013 197.581 85.4855C197.978 84.0295 197.705 82.466 197.525 80.9545C197.072 77.1007 197.255 73.1869 198.065 69.4068C198.32 67.9924 198.804 66.6423 199.495 65.4235C200.268 64.1651 201.376 63.2152 202.484 62.3208C208.915 57.1409 216.012 53.0791 223.532 50.2739C224.224 52.2292 224.889 54.5137 225.419 56.514C225.491 56.7844 225.54 57.1277 225.342 57.301C225.143 57.4743 224.938 57.3807 224.721 57.3877C224.497 57.4148 224.285 57.5171 224.114 57.6811C223.943 57.845 223.82 58.063 223.762 58.3063C223.654 58.7973 223.695 59.3147 223.88 59.7762C224.302 60.9896 225.211 61.8944 226.086 62.7507L230.487 67.039C231.013 67.5897 231.588 68.0798 232.203 68.502C232.755 68.8487 233.357 69.0948 233.925 69.4137C236.203 70.6999 237.776 73.2063 238.654 75.8827C239.532 78.559 239.135 81.7761 240.28 84.3172C244.085 92.7414 244.054 102.708 242.763 112.044Z" fill="#E8E8F0"/>
<path d="M239.871 200.189C241.208 206.21 241.174 212.508 239.774 218.511C239.523 219.582 239.228 220.692 239.427 221.777C239.542 222.394 239.812 222.973 239.874 223.6C239.901 224.173 239.845 224.746 239.709 225.299C238.332 232.579 238.825 240.143 239.38 247.573C239.145 247.573 239.07 247.694 238.822 247.694H232.842C232.737 245.742 230.564 244.279 229.503 242.723C228.476 241.197 227.766 239.435 227.424 237.565C227.083 235.695 227.117 233.763 227.526 231.91C228.457 227.75 231.2 224.425 232.606 220.449C234.158 216.074 234.024 211.12 235.672 206.793C236.619 204.294 238.387 202.342 239.871 200.189Z" fill="#3F3D56"/>
<path opacity="0.1" d="M239.871 200.189C241.208 206.21 241.174 212.508 239.774 218.511C239.523 219.582 239.228 220.692 239.427 221.777C239.542 222.394 239.812 222.973 239.874 223.6C239.901 224.173 239.845 224.746 239.709 225.299C238.332 232.579 238.825 240.143 239.38 247.573C239.145 247.573 239.07 247.694 238.822 247.694H232.842C232.737 245.742 230.564 244.279 229.503 242.723C228.476 241.197 227.766 239.435 227.424 237.565C227.083 235.695 227.117 233.763 227.526 231.91C228.457 227.75 231.2 224.425 232.606 220.449C234.158 216.074 234.024 211.12 235.672 206.793C236.619 204.294 238.387 202.342 239.871 200.189Z" fill="black"/>
<path d="M227.322 166.822C222.239 165.914 217.314 168.774 212.405 170.511C204.904 173.163 196.647 173.326 189.718 177.489C189.099 177.822 188.537 178.275 188.06 178.827C187.498 179.605 187.144 180.545 187.04 181.538C186.73 183.734 187.11 185.982 188.116 187.9C188.548 188.718 189.091 189.47 189.426 190.347C190.22 192.427 189.69 194.826 189.553 197.101C189.243 202.179 191.005 207.123 191.359 212.198C191.57 215.19 191.294 218.248 191.924 221.167C192.318 222.997 193.06 224.723 193.367 226.575C193.674 228.426 193.541 230.236 193.643 232.066C193.932 237.311 196.07 242.407 195.548 247.632L235.889 247.781C234.394 241.967 233.149 235.956 234.505 230.1C234.976 228.249 235.561 226.436 236.255 224.675C238.511 218.584 240.83 212.475 242.074 206.034C243.318 199.593 243.43 192.715 241.323 186.558C238.977 179.694 233.99 173.984 232.904 166.739C231.042 166.462 229.187 167.155 227.322 166.822Z" fill="#3F3D56"/>
<path d="M184.985 23.4658C184.594 22.5505 183.486 21.9473 182.742 22.5263C181.997 23.1052 182.093 24.3983 181.91 25.4383C181.556 27.4837 179.738 28.8773 177.876 29.2032C177.004 29.3592 176.033 29.2968 175.356 28.6659C174.92 28.1997 174.6 27.6158 174.425 26.9706C172.563 21.4239 173.696 14.948 176.743 10.1085C177.39 9.024 178.192 8.06592 179.117 7.27267C181.683 5.19263 185.115 5.19263 188.29 5.30356C188.935 5.38165 189.587 5.29755 190.198 5.05743C190.665 4.78332 191.091 4.43276 191.464 4.01741C194.471 1.06375 198.627 -0.177336 202.636 0.0202677C206.645 0.217871 210.502 1.75363 214.065 3.79554C215.768 4.76969 217.438 5.87558 218.772 7.4148C221.978 11.0999 222.76 16.56 223.39 21.6492C224.066 27.1405 224.74 32.7843 223.601 38.182C222.955 41.2397 221.739 44.228 221.882 47.3654C219.304 48.1877 216.684 48.8349 214.037 49.3033C212.796 49.5217 211.362 49.65 210.453 48.6689C210.068 48.2084 209.787 47.6523 209.633 47.0465C208.65 43.7981 208.979 40.0887 207.492 37.0866C206.871 35.8625 205.983 34.8336 204.91 34.0954C203.838 33.3573 202.615 32.9337 201.357 32.8641C200.383 32.8259 199.275 33.0929 198.776 34.0254C198.584 34.4828 198.436 34.9616 198.335 35.4537C197.646 37.773 194.825 38.9205 192.966 37.6274C192.035 36.9756 191.399 35.894 190.558 35.0828C189.491 34.0601 188.122 33.5332 186.925 32.7081C182.934 29.9451 186.53 27.0885 184.985 23.4658Z" fill="#3F3D56"/>
<path d="M153.864 141.574C152.166 142.18 150.621 143.279 148.97 144.053C146.063 145.408 142.866 145.723 139.816 146.59C136.885 147.468 134.06 148.739 131.403 150.376C131.208 150.494 130.593 151.069 130.103 151.464C130.103 151.288 130.103 151.118 130.103 150.931C130.172 149.797 130.596 148.727 131.301 147.908C132.027 147.065 132.998 146.552 133.954 146.074C138.905 143.605 144.051 141.661 149.327 140.267C150.168 140.045 151.059 139.837 151.887 140.118C152.151 141.023 153.007 141.342 153.864 141.574Z" fill="#3F3D56"/>
<path opacity="0.1" d="M109.87 230.478C113.209 234.638 116.204 239.18 120.089 242.688C115.605 236.035 109.172 231.594 103.357 226.578C102.178 225.559 99.8193 224.113 99.1056 222.64C97.9791 220.331 100.468 221.971 101.501 222.598C104.728 224.557 107.434 227.448 109.87 230.478Z" fill="black"/>
<path opacity="0.1" d="M230.009 109.046C229.851 110.543 229.351 111.965 228.845 113.358C227.604 116.825 226.273 120.257 224.398 123.332C223.107 125.45 221.571 127.364 220.225 129.433C218.842 131.63 217.574 133.914 216.426 136.273C214.31 140.461 212.247 144.684 210.239 148.941C209.28 150.979 208.327 153.035 207.089 154.876C206.22 156.118 205.288 157.303 204.296 158.426C202.124 160.984 199.893 163.348 197.95 166.122C196.988 167.508 195.384 168.042 193.885 168.514C193.384 168.7 192.861 168.805 192.334 168.826C191.802 168.784 191.279 168.655 190.782 168.441C189.108 167.87 187.47 167.175 185.879 166.361C185.519 158.682 184.703 150.976 186.5 143.619C187.036 141.449 187.794 139.355 188.402 137.209C189.59 133.025 189.898 128.698 190.195 124.358C190.565 123.488 190.959 122.625 191.341 121.786C193.929 116.073 196.11 109.781 195.437 103.412C195.265 102.264 195.146 101.107 195.08 99.9454C195.086 98.5212 195.301 97.1078 195.716 95.7611C196.645 92.5803 198.18 89.6624 200.216 87.2085C202.251 84.7547 204.739 82.8233 207.508 81.5475C208.382 81.091 209.336 80.8544 210.301 80.8541C211.542 80.9269 212.731 81.648 213.941 81.3845C218.04 83.3987 221.357 86.8377 223.837 91.0047C226.316 95.1717 226.453 100.739 229.149 104.733C229.947 105.946 230.164 107.551 230.009 109.046Z" fill="black"/>
<path d="M140.284 90.2315L140.154 89.916L135.083 92.5299L134.236 92.9667L133.392 93.4001L140.542 110.716L141.386 110.28L142.233 109.843L147.304 107.229L147.173 106.917L142.103 109.531L141.972 109.215L147.043 106.601L146.913 106.286L141.842 108.9L141.712 108.584L146.782 105.97L146.655 105.655L141.581 108.269L141.451 107.957L146.525 105.343L146.394 105.027L141.321 107.641L141.19 107.326L146.264 104.712L146.134 104.397L141.063 107.01L140.933 106.695L146.003 104.081L145.873 103.769L140.803 106.383L140.672 106.068L145.743 103.454L145.612 103.138L140.542 105.752L140.412 105.437L145.485 102.823L145.355 102.507L140.281 105.121L140.151 104.809L145.225 102.192L145.094 101.88L140.021 104.494L139.893 104.178L144.964 101.564L144.834 101.249L139.763 103.863L139.633 103.547L144.703 100.933L144.573 100.618L139.502 103.232L139.372 102.92L144.443 100.306L144.315 99.9903L139.242 102.604L139.111 102.289L144.185 99.6749L144.055 99.3594L138.981 101.973L138.854 101.658L143.924 99.0474L143.794 98.7319L138.723 101.346L138.593 101.03L143.664 98.4164L143.533 98.101L138.463 100.715L138.332 100.399L143.403 97.7855L143.276 97.47L138.202 100.087L138.072 99.7719L143.145 97.158L143.015 96.8425L137.941 99.4565L137.811 99.141L142.885 96.5271L142.754 96.2116L137.684 98.8255L137.554 98.51L142.624 95.8961L142.494 95.5841L137.423 98.198L137.293 97.8826L142.363 95.2686L142.233 94.9532L137.163 97.5671L137.032 97.2516L142.106 94.6377L141.976 94.3257L136.902 96.9361L136.772 96.6241L141.845 94.0102L141.715 93.6948L136.641 96.3087L136.514 95.9932L141.585 93.3793L141.454 93.0638L136.384 95.6777L136.253 95.3622L141.324 92.7483L141.194 92.4363L136.123 95.0502L135.993 94.7348L141.063 92.1209L140.936 91.8054L135.862 94.4193L135.732 94.1038L140.806 91.4899L140.675 91.1744L135.602 93.7884L135.471 93.4764L140.545 90.8624L140.415 90.547L135.341 93.1609L135.214 92.8454L140.284 90.2315Z" fill="black"/>
<path opacity="0.1" d="M156.203 128.317C155.549 129.555 154.546 130.629 153.302 130.993C151.75 131.441 149.944 130.574 149.268 128.952C148.852 127.946 148.871 126.795 148.849 125.689C148.815 123.524 148.607 121.366 148.228 119.241C148.036 118.177 147.778 117.071 147.13 116.267C146.292 115.227 144.958 114.88 143.716 114.856C142.264 114.835 140.672 115.275 139.825 116.589C139.145 117.65 139.028 119.141 138.125 119.969C137.723 120.313 137.246 120.53 136.744 120.597C135.719 120.739 134.682 120.494 133.797 119.9C132.912 119.306 132.231 118.398 131.862 117.321C131.577 116.405 131.437 115.268 130.661 114.839C130.258 114.613 129.777 114.655 129.346 114.509C128.024 114.062 127.676 112.19 127.555 110.654C127.416 108.855 127.952 105.302 125.951 105.18C123.81 105.048 121.324 106.439 119.341 107.177C118.069 107.749 116.573 108.408 115.403 107.607C114.544 107.014 114.19 105.783 114.243 104.657C114.295 103.53 114.68 102.462 114.984 101.388C115.506 99.571 115.819 97.6851 116.297 95.8408C116.072 96.3626 115.872 96.8972 115.698 97.4425C115.009 99.63 114.686 101.949 114.053 104.147C113.743 105.222 113.365 106.29 113.312 107.416C113.259 108.543 113.622 109.774 114.472 110.366C115.642 111.167 117.138 110.509 118.41 109.937C120.393 109.198 122.879 107.808 125.02 107.94C127.021 108.061 126.485 111.614 126.624 113.414C126.745 114.949 127.093 116.821 128.415 117.269C128.846 117.414 129.327 117.373 129.731 117.598C130.506 118.028 130.661 119.165 130.931 120.08C131.3 121.158 131.981 122.066 132.866 122.66C133.751 123.254 134.788 123.499 135.813 123.356C136.315 123.29 136.792 123.073 137.194 122.729C138.097 121.9 138.215 120.41 138.894 119.349C139.741 118.028 141.333 117.588 142.785 117.615C144.027 117.636 145.377 117.983 146.199 119.026C146.847 119.831 147.105 120.936 147.297 122.001C147.676 124.125 147.884 126.283 147.918 128.449C147.94 129.555 147.918 130.706 148.337 131.711C149.01 133.333 150.82 134.2 152.371 133.753C153.612 133.389 154.618 132.314 155.273 131.077C155.771 130.066 156.155 128.99 156.414 127.873C156.346 128.033 156.278 128.175 156.203 128.317Z" fill="black"/>
<path d="M172.166 126.015C169.684 123.353 167.44 120.406 165.212 117.466C163.077 114.655 160.936 111.829 159.217 108.685C158.152 106.74 157.203 104.618 155.567 103.256C154.326 102.216 152.809 101.731 151.437 100.937C150.45 100.365 149.541 99.6402 148.567 99.0474C146.441 97.7639 144.049 97.1335 141.634 97.2204C140.632 97.2586 139.493 97.5186 138.978 98.4823C138.801 98.8117 138.717 99.1965 138.537 99.5224C137.982 100.562 136.644 100.857 136.188 101.949C135.419 103.786 137.74 105.475 137.886 107.496C137.954 108.508 137.454 109.451 137.308 110.453C137.06 112.186 137.864 113.84 138.64 115.351C140.3 118.589 142.32 122.136 145.581 122.951C146.736 123.238 147.955 123.145 149.082 123.554C149.99 123.938 150.83 124.498 151.564 125.207C154.628 127.906 157.329 131.082 159.583 134.64C160.632 136.294 161.581 138.02 162.639 139.664C166.007 144.87 170.427 149.114 175.539 152.054L179.347 138.533C179.933 136.453 180.396 133.6 178.726 131.978C176.635 129.874 174.223 128.213 172.166 126.015Z" fill="#FBBEBE"/>
<path d="M213.615 79.6649C212.405 79.9249 211.204 79.2073 209.975 79.1345C209.01 79.1341 208.056 79.3708 207.182 79.8279C204.414 81.1045 201.926 83.0362 199.891 85.4899C197.855 87.9436 196.319 90.8611 195.39 94.0415C194.979 95.3938 194.767 96.8116 194.763 98.2397C194.782 99.401 194.999 100.545 195.12 101.706C195.793 108.064 193.612 114.36 191.027 120.08C189.596 123.238 187.983 126.57 188.321 130.089C188.364 130.56 188.433 131.09 188.175 131.475C187.865 131.933 187.195 131.957 186.906 132.439C186.617 132.921 186.881 133.649 186.652 134.193C186.341 134.963 185.33 134.869 184.607 134.595C182.625 133.846 180.789 132.681 179.198 131.163C176.619 132.845 173.86 134.848 173.013 138.045C172.814 138.86 172.676 139.693 172.6 140.534L171.269 152.945C171.092 154.588 171.005 156.515 172.116 157.611C174.031 159.504 177.441 157.053 179.489 158.765C180.014 159.202 180.355 159.854 180.731 160.447C182.968 163.875 186.819 165.383 190.431 166.687C190.929 166.898 191.452 167.026 191.983 167.068C192.511 167.052 193.034 166.946 193.534 166.756C195.036 166.285 196.637 165.737 197.599 164.368C199.545 161.594 201.776 159.23 203.948 156.671C204.938 155.548 205.871 154.362 206.741 153.122C207.983 151.277 208.932 149.221 209.891 147.183C211.896 142.926 213.956 138.703 216.072 134.516C217.232 132.166 218.512 129.892 219.905 127.707C221.255 125.627 222.788 123.72 224.079 121.605C225.94 118.527 227.278 115.081 228.525 111.632C229.031 110.245 229.531 108.813 229.692 107.319C229.854 105.825 229.636 104.22 228.823 103.017C226.127 99.0197 225.993 93.4556 223.514 89.2886C221.034 85.1216 217.717 81.6756 213.615 79.6649Z" fill="#E8E8F0"/>
<path d="M140.368 91.6529C140.296 91.7044 140.234 91.7729 140.188 91.8538C140.142 91.9347 140.112 92.0259 140.101 92.1209C140.101 92.2943 140.228 92.4295 140.297 92.5855C140.486 93.0292 140.182 93.5423 139.834 93.8474C139.487 94.1524 139.065 94.3882 138.875 94.8354C138.846 94.8947 138.833 94.9621 138.838 95.0295C138.859 95.1209 138.907 95.2016 138.975 95.2583C139.179 95.5208 139.444 95.7151 139.741 95.8199C140.216 95.9309 140.672 95.5807 141.076 95.293C141.513 94.9838 141.979 94.7281 142.466 94.5303C142.616 94.4806 142.758 94.402 142.885 94.298C143.04 94.1253 143.135 93.8969 143.155 93.6532C143.26 92.7831 142.844 91.9476 142.37 91.2265C141.799 90.3772 140.855 91.1849 140.368 91.6529Z" fill="#3F3D56"/>
<path d="M92.7595 194.39L60.5486 176.023C60.3135 175.889 60.0257 175.993 59.9057 176.256L51.6966 194.224C51.5767 194.486 51.67 194.808 51.905 194.942L84.116 213.309C84.3511 213.443 84.6389 213.339 84.7589 213.076L92.9679 195.108C93.0879 194.846 92.9946 194.524 92.7595 194.39Z" fill="#3F3D56"/>
<path d="M89.794 194.852L62.0054 179.007L54.9545 194.439L82.7432 210.285L89.794 194.852Z" fill="#E8E8F0"/>
<path d="M57.8686 186.38C57.9535 186.194 57.8182 185.927 57.5663 185.783C57.3145 185.64 57.0414 185.674 56.9565 185.86C56.8716 186.046 57.0069 186.313 57.2588 186.456C57.5107 186.6 57.7837 186.566 57.8686 186.38Z" fill="#E6E8EC"/>
<path d="M88.2572 203.753C88.3967 203.448 88.1731 203.008 87.7579 202.771C87.3427 202.535 86.8931 202.59 86.7536 202.895C86.6142 203.201 86.8377 203.64 87.2529 203.877C87.6681 204.114 88.1177 204.058 88.2572 203.753Z" fill="#E6E8EC"/>
<g opacity="0.1">
<path d="M223.595 35.7414C222.949 38.7991 221.733 41.7874 221.875 44.9248C219.298 45.7471 216.678 46.3943 214.031 46.8627C212.789 47.0811 211.356 47.2093 210.447 46.2283C210.062 45.7678 209.781 45.2116 209.627 44.6058C208.644 41.3575 208.973 37.6481 207.486 34.6459C206.865 33.4218 205.976 32.393 204.904 31.6548C203.831 30.9166 202.609 30.4931 201.351 30.4234C200.377 30.3853 199.269 30.6522 198.769 31.5848C198.578 32.0422 198.43 32.521 198.329 33.0131C197.64 35.3323 194.819 36.4798 192.96 35.1867C192.029 34.535 191.393 33.4534 190.552 32.6421C189.485 31.6195 188.116 31.0925 186.918 30.2674C185.839 29.5256 185.32 28.7767 185.1 28.0037C184.827 29.6712 184.749 31.2035 186.918 32.6941C188.116 33.5192 189.485 34.0462 190.552 35.0689C191.393 35.8731 192.017 36.9617 192.96 37.6134C194.822 38.8996 197.64 37.759 198.329 35.4398C198.43 34.9477 198.578 34.4689 198.769 34.0115C199.269 33.079 200.377 32.812 201.351 32.8502C202.609 32.9198 203.831 33.3433 204.904 34.0815C205.976 34.8197 206.865 35.8485 207.486 37.0726C208.973 40.0748 208.644 43.7842 209.627 47.0325C209.783 47.6434 210.069 48.2034 210.459 48.6654C211.368 49.6361 212.805 49.5182 214.043 49.2998C216.691 48.8314 219.31 48.1842 221.888 47.3619C221.736 44.2245 222.962 41.2362 223.607 38.1785C224.104 35.6765 224.303 33.112 224.2 30.5517C224.15 32.2995 223.948 34.0378 223.595 35.7414Z" fill="black"/>
<path d="M185.286 24.4364C185.513 23.2961 185.404 22.1045 184.976 21.039C184.585 20.1238 183.477 19.5206 182.732 20.0995C181.988 20.6784 182.093 21.9715 181.91 23.0115C181.556 25.0569 179.738 26.4505 177.876 26.7764C177.004 26.9324 176.033 26.87 175.356 26.2391C174.921 25.7729 174.6 25.189 174.425 24.5438C173.949 23.102 173.659 21.5914 173.566 20.0579C173.408 22.4042 173.701 24.761 174.425 26.9705C174.6 27.6157 174.921 28.1996 175.356 28.6658C176.033 29.2967 177.004 29.3591 177.876 29.2031C179.716 28.8773 181.544 27.4698 181.91 25.4383C182.087 24.3982 181.966 23.1398 182.735 22.5435C183.505 21.9473 184.597 22.5678 184.979 23.483C185.112 23.7875 185.215 24.1071 185.286 24.4364Z" fill="black"/>
</g>
</svg>
