<svg width="300" height="248" viewBox="0 0 300 248" fill="none" xmlns="http://www.w3.org/2000/svg">
<rect y="78" width="300" height="170" rx="10" fill="#DAE0FC"/>
<path d="M135.112 107.293C133.79 104.372 134.288 101.315 136.223 100.463C138.159 99.6123 140.799 101.29 142.121 104.212C142.666 105.372 142.913 106.646 142.843 107.929L148.282 120.376L142.148 122.838L137.437 110.307C136.421 109.501 135.624 108.468 135.112 107.293Z" fill="#FFAFAF"/>
<path d="M172.701 112.578C176.017 115.704 175.809 121.039 172.26 123.898L154.881 137.901C152.984 139.43 150.169 138.89 148.972 136.768C144.405 129.374 143.544 128.968 140.89 121.39L148.375 118.772L152.596 124.057L161.811 113.186C164.596 109.9 169.567 109.623 172.701 112.578Z" fill="#549F92"/>
<path d="M105.599 93.6702V88.1602H51V93.6702H105.599Z" fill="#DFDFDF"/>
<path d="M243.851 93.6702V88.1602H189.252V93.6702H243.851Z" fill="#DFDFDF"/>
<path d="M81.2462 69.1294H71.9116C68.2913 69.1294 65.3566 72.0642 65.3566 75.6844V110.157C65.3566 113.777 68.2913 116.712 71.9116 116.712H81.2462C84.8664 116.712 87.8012 113.777 87.8012 110.157V75.6844C87.8012 72.0642 84.8664 69.1294 81.2462 69.1294Z" fill="#3F3D56"/>
<path d="M228.483 69.1294H219.148C215.528 69.1294 212.593 72.0642 212.593 75.6844V110.157C212.593 113.777 215.528 116.712 219.148 116.712H228.483C232.103 116.712 235.038 113.777 235.038 110.157V75.6844C235.038 72.0642 232.103 69.1294 228.483 69.1294Z" fill="#3F3D56"/>
<path d="M222.566 105.041H80.0074C75.0512 105.041 70.8103 101.501 69.9237 96.6253L64.4719 66.6403C62.101 53.6001 67.0136 40.3144 77.295 31.9542L88.0451 8.82529C90.5369 3.46401 95.9671 0 101.879 0H182.183C186.452 0 190.554 1.80609 193.436 4.95535L213.19 26.5377C227.641 36.2761 235.84 53.1188 234.589 70.5015L232.789 95.5272C232.405 100.862 227.915 105.041 222.566 105.041Z" fill="#D54747"/>
<path d="M198.237 29.8513H90.5316C88.661 29.8513 86.9349 28.9154 85.9143 27.3482C84.8937 25.7806 84.736 23.8233 85.4926 22.1128L91.1696 9.27769C92.0336 7.32431 93.9716 6.03681 96.1065 5.9978L187.922 6.10959C189.67 6.09819 191.34 6.88506 192.4 8.26988L202.612 20.9932C203.896 22.6704 204.112 24.8881 203.177 26.7819C202.241 28.6752 200.348 29.8513 198.237 29.8513Z" fill="white"/>
<path d="M214.389 63.7426C219.595 63.7426 223.816 59.5221 223.816 54.3159C223.816 49.1097 219.595 44.8892 214.389 44.8892C209.183 44.8892 204.962 49.1097 204.962 54.3159C204.962 59.5221 209.183 63.7426 214.389 63.7426Z" fill="white"/>
<path d="M90.4946 63.7426C95.7008 63.7426 99.9213 59.5221 99.9213 54.3159C99.9213 49.1097 95.7008 44.8892 90.4946 44.8892C85.2884 44.8892 81.0679 49.1097 81.0679 54.3159C81.0679 59.5221 85.2884 63.7426 90.4946 63.7426Z" fill="white"/>
<path d="M205.187 89.554H102.39V89.3295C102.39 84.0077 106.72 79.6783 112.041 79.6783H195.535C200.857 79.6783 205.187 84.0077 205.187 89.3295V89.554Z" fill="#3F3D56"/>
<path d="M78.8058 33.9312C78.2495 33.9312 77.6922 33.7541 77.2242 33.3964L73.4605 30.5189C73.0867 30.2331 72.6217 30.0757 72.151 30.0757H63.9317C62.9913 30.0757 62.1485 29.59 61.6774 28.776C61.2062 27.9623 61.2045 26.9896 61.6726 26.1742L63.6792 22.6786C64.08 21.9803 64.7957 21.4999 65.594 21.3933L75.8775 20.0221C77.1592 19.852 78.3525 20.6266 78.7193 21.8646L81.3038 30.5873C81.5884 31.5478 81.29 32.5999 80.5434 33.2684C80.0515 33.7085 79.4294 33.9312 78.8058 33.9312Z" fill="#D54747"/>
<path d="M212.162 32.1357C211.538 32.1357 210.916 31.913 210.424 31.4728C209.678 30.8043 209.379 29.7522 209.664 28.7918L212.248 20.0691C212.615 18.8302 213.81 18.053 215.09 18.227L225.374 19.5978C226.172 19.7043 226.888 20.1848 227.289 20.8831L229.295 24.3787C229.763 25.1941 229.761 26.1668 229.29 26.9804C228.819 27.7945 227.976 28.2802 227.036 28.2802H218.817C218.346 28.2802 217.881 28.4376 217.507 28.7234L213.744 31.6009C213.276 31.9586 212.718 32.1357 212.162 32.1357Z" fill="#D54747"/>
<path d="M56.5105 17.031H51.0005V242.941H56.5105V17.031Z" fill="#747474"/>
<path d="M246.856 17.031H241.346V242.941H246.856V17.031Z" fill="#747474"/>
<path d="M184.297 226.072V236.305L192.034 236.554L191.712 226.072H184.297Z" fill="#FFAFAF"/>
<path d="M182.766 231.766C182.662 231.766 182.559 231.78 182.46 231.808C181.064 232.207 172.981 239.423 170.537 241.625C170.235 241.897 170.075 242.285 170.097 242.691C170.119 243.094 170.32 243.461 170.648 243.697C172.501 245.032 176.298 247.144 180.906 246.29C183.025 245.898 185.163 245.651 187.05 245.433C191.09 244.967 194.281 244.598 194.281 243.168C194.281 240.742 193.613 234.347 192.776 234.079C192.7 234.056 192.612 234.114 192.51 234.256C191.229 236.05 186.828 235.095 186.641 235.054L186.592 235.043L186.565 235.002C186.542 234.967 184.387 231.766 182.766 231.766Z" fill="#2F2E41"/>
<path d="M169.823 226.072V236.305L177.56 236.554L177.237 226.072H169.823Z" fill="#FFAFAF"/>
<path d="M166.703 152.822L162.585 155.941L161.836 191.132L168.825 229.566L177.934 229.941L178.184 193.253L189.914 159.81L187.543 151.948L166.703 152.822Z" fill="#2F2E41"/>
<path d="M185.92 158.812L189.914 159.81L192.784 229.566L182.426 228.693L175.563 179.402L185.92 158.812Z" fill="#2F2E41"/>
<path d="M164.298 246.735C160.748 246.735 157.863 245.166 156.322 244.108C155.857 243.788 155.569 243.281 155.532 242.716C155.495 242.145 155.717 241.599 156.142 241.217C159.966 237.777 166.58 231.949 167.916 231.568C169.646 231.072 171.969 234.382 172.268 234.821C172.751 234.92 176.713 235.677 177.831 234.111C178.045 233.813 178.245 233.799 178.376 233.841C179.571 234.224 180.054 241.915 180.054 243.168C180.054 244.821 176.929 245.182 172.603 245.681C170.72 245.898 168.586 246.145 166.475 246.535C165.727 246.674 164.999 246.735 164.298 246.735Z" fill="#2F2E41"/>
<path d="M175.26 107.242L178.103 112.969L167.359 118.158L167.491 108.977L175.26 107.242Z" fill="#FFAFAF"/>
<path d="M167.397 111.574C172.736 111.574 177.064 107.246 177.064 101.906C177.064 96.5671 172.736 92.2388 167.397 92.2388C162.057 92.2388 157.729 96.5671 157.729 101.906C157.729 107.246 162.057 111.574 167.397 111.574Z" fill="#FFAFAF"/>
<path d="M167.331 115.925L177.244 110.068C184.514 115.166 190.569 116.359 190.761 125.237L189.422 146.415L189.5 155.535C189.533 159.364 186.438 162.485 182.609 162.485H168.454C164.708 162.485 161.918 159.029 162.706 155.367L165.379 142.96L162.525 118.779L167.331 115.925Z" fill="#549F92"/>
<path d="M177.338 106.771L175.551 108.051C175.551 108.051 175.025 102.47 174.299 102.222C173.573 101.975 172.594 103.261 172.594 103.261L171.879 105.356L169.515 104.371C169.515 104.371 166.777 102.896 165.809 102.566C164.842 102.236 164.988 99.432 164.988 99.432C164.988 99.432 153.372 101.022 155.118 94.3259C155.118 94.3259 155.719 89.3995 157.005 90.3787C158.291 91.3578 158.308 88.933 158.308 88.933L161.223 88.3072C161.223 88.3072 165.222 82.92 173.111 87.5028C180.999 92.0856 177.338 106.771 177.338 106.771Z" fill="#2F2E41"/>
<path d="M157.162 128.17L154.55 127.772C153.821 127.661 153.315 126.973 153.427 126.244L153.746 124.149C152.798 124.735 152.102 125.715 151.921 126.903C151.642 128.736 152.677 130.462 154.321 131.134L152.036 146.134C152.03 146.172 152.031 146.208 152.03 146.246C150.256 146.393 148.748 147.734 148.468 149.571C148.304 150.648 148.593 151.689 149.192 152.501L149.48 150.614C149.591 149.884 150.278 149.379 151.008 149.49L153.619 149.888C154.349 149.999 154.854 150.686 154.743 151.416L154.424 153.511C155.372 152.925 156.068 151.944 156.249 150.756C156.528 148.92 155.488 147.19 153.838 146.521C153.848 146.485 153.861 146.45 153.866 146.413L156.151 131.413C157.92 131.261 159.423 129.921 159.702 128.089C159.866 127.012 159.577 125.971 158.978 125.159L158.69 127.046C158.579 127.775 157.891 128.281 157.162 128.17Z" fill="#3F3D56"/>
<path d="M152.298 141.221C149.164 140.547 147.002 138.328 147.469 136.266C147.937 134.203 150.856 133.079 153.991 133.755C155.247 134.007 156.419 134.566 157.409 135.386L170.648 138.419L168.978 144.814L156.103 141.146C154.851 141.483 153.547 141.509 152.298 141.221Z" fill="#FFAFAF"/>
<path d="M178.907 114.152C183.393 113.347 187.557 116.687 187.745 121.241L188.661 143.541C188.761 145.975 186.652 147.916 184.235 147.616C175.575 146.888 176.183 147.775 168.513 145.4L169.026 137.249L176.174 137.141L172.918 123.267C171.934 119.074 174.668 114.913 178.907 114.152Z" fill="#549F92"/>
</svg>
