<svg width="224" height="122" viewBox="0 0 224 122" fill="none" xmlns="http://www.w3.org/2000/svg">
<path d="M111.015 2.8749C111.791 1.5756 113.673 1.5756 114.449 2.8749L136.906 40.4745C137.702 41.8076 136.742 43.5 135.189 43.5H90.2757C88.723 43.5 87.7625 41.8076 88.5587 40.4745L111.015 2.8749Z" fill="black"/>
<path d="M163.784 39.8533C165.255 40.2066 165.817 42.003 164.808 43.1312L135.616 75.779C134.581 76.9365 132.679 76.5245 132.216 75.0424L118.822 32.1727C118.359 30.6906 119.688 29.2691 121.198 29.6315L163.784 39.8533Z" fill="black"/>
<path d="M146.981 100.151C147.127 101.657 145.613 102.774 144.217 102.19L103.825 85.2634C102.393 84.6633 102.161 82.7312 103.41 81.8094L139.553 55.1468C140.803 54.225 142.581 55.0167 142.731 56.5622L146.981 100.151Z" fill="black"/>
<path d="M60.7424 43.1737C59.7264 42.052 60.276 40.252 61.7453 39.8893L104.264 29.3931C105.772 29.021 107.11 30.4339 106.656 31.919L93.5389 74.8741C93.0854 76.3592 91.1863 76.7835 90.1438 75.6326L60.7424 43.1737Z" fill="black"/>
<path d="M82.6642 102.824C81.2799 103.435 79.7441 102.347 79.8619 100.839L83.2699 57.1761C83.3907 55.628 85.1527 54.8021 86.4198 55.6996L123.07 81.6603C124.337 82.5579 124.143 84.4941 122.723 85.1217L82.6642 102.824Z" fill="black"/>
<rect x="92.7324" y="36" width="37" height="44" fill="black"/>
<path d="M76.2885 22.7313L68.0526 4.9335C67.336 3.3849 65.134 3.38726 64.4207 4.93738L56.6404 21.8454C56.3832 22.4045 55.8828 22.814 55.2839 22.9557L32.8088 28.2714C31.3799 28.6094 30.7901 30.3205 31.7074 31.4671L45.2247 48.3639C45.5505 48.7711 45.7044 49.2894 45.6535 49.8084L43.5579 71.1835C43.4106 72.6857 44.9168 73.8034 46.3119 73.2272L65.4682 65.3146C65.9576 65.1125 66.5073 65.1127 66.9965 65.3152L80.7326 71.0004" stroke="black" stroke-width="6"/>
<path d="M149.78 22.7313L158.016 4.9335C158.733 3.3849 160.935 3.38726 161.648 4.93738L169.428 21.8454C169.686 22.4045 170.186 22.814 170.785 22.9557L193.26 28.2714C194.689 28.6094 195.279 30.3205 194.361 31.4671L180.844 48.3639C180.518 48.7711 180.364 49.2894 180.415 49.8084L182.511 71.1835C182.658 72.6857 181.152 73.8034 179.757 73.2272L160.601 65.3146C160.111 65.1125 159.562 65.1127 159.072 65.3152L145.336 71.0004" stroke="black" stroke-width="6"/>
</svg>
