<svg width="300" height="293" viewBox="0 0 300 293" fill="none" xmlns="http://www.w3.org/2000/svg">
<rect width="300" height="293" rx="10" fill="#DFE5FF"/>
<rect x="14" y="11" width="271" height="271" rx="10" fill="#F0F2FD"/>
<path d="M102.445 82.901C102.522 81.8296 103.414 81 104.488 81C105.505 81 106.407 81.6521 106.726 82.6176L111.632 97.4783L116.811 108.464L117.301 109.599C118.51 112.397 122.136 113.135 124.341 111.032C125.072 110.334 125.895 109.74 126.787 109.266L130.971 107.04C132.2 106.386 133.487 105.847 134.814 105.427L137.307 104.64C139.607 103.914 141.989 103.484 144.397 103.361L152.017 102.971L144.223 114.794H141.66L141.217 114.856C139.776 115.057 138.372 115.468 137.05 116.076L136.859 116.164C135.74 116.678 134.697 117.343 133.76 118.142L133.484 118.455C132.876 119.141 132.454 119.985 132.262 120.881C132.147 121.418 132.116 121.977 132.173 122.523C132.254 123.289 132.504 124.028 132.905 124.686L133.086 124.984C133.428 125.544 133.87 126.037 134.39 126.438C135.076 126.967 135.889 127.324 136.743 127.475C137.053 127.53 137.372 127.558 137.687 127.558H137.707C138.485 127.558 139.255 127.397 139.968 127.085L146.074 124.414C147.403 123.832 148.847 123.559 150.297 123.616C151.503 123.663 152.689 123.936 153.793 124.423L159.644 126.998C160.172 127.231 160.73 127.386 161.302 127.46L161.507 127.486C161.875 127.534 162.248 127.535 162.616 127.488C163.35 127.397 164.05 127.121 164.649 126.687L165.202 126.288C165.856 125.814 166.403 125.209 166.808 124.511L166.998 124.184C167.462 123.383 167.671 122.46 167.598 121.538C167.535 120.752 167.269 119.996 166.826 119.344L166.407 118.727C165.886 117.96 165.225 117.298 164.458 116.776L164.404 116.74C163.582 116.18 162.66 115.785 161.688 115.575L159.76 115.16C157.427 114.916 155.078 114.861 152.736 114.995L149.873 115.16L144.223 114.794L151.547 102.971H152.419C155.106 102.971 157.784 103.287 160.397 103.912C163.445 104.641 166.379 105.785 169.116 107.312L175.627 110.942C176.103 111.207 176.547 111.525 176.951 111.889L177.216 112.128C177.331 112.231 177.454 112.325 177.584 112.408L177.734 112.504C177.989 112.668 178.278 112.774 178.578 112.814C178.795 112.843 179.015 112.838 179.23 112.797C179.566 112.734 179.882 112.588 180.148 112.372L180.358 112.202C180.505 112.082 180.642 111.948 180.765 111.803L181.783 110.609L185.392 105.011L193.212 82.5779C193.542 81.633 194.433 81 195.433 81H195.864C196.61 81 197.274 81.4733 197.517 82.1785C197.594 82.4032 197.641 82.6373 197.655 82.8745L198.209 91.9856L199.621 111.76L199.963 119.545C200.049 121.501 199.985 123.461 199.77 125.407C199.567 127.257 199.228 129.089 198.758 130.89L198.689 131.155C198.195 133.044 197.56 134.893 196.789 136.686L195.384 139.956L191.513 146.547L186.962 153.348L181.881 159.957C181.677 160.223 181.444 160.467 181.188 160.683L179.345 162.242C176.131 164.96 172.336 166.904 168.252 167.925L165.252 168.675L139.947 168.975C136.277 169.019 132.635 168.336 129.231 166.967L126.761 165.973C125.606 165.509 124.494 164.941 123.439 164.279C122.059 163.411 120.786 162.385 119.644 161.222L118.642 160.201L111.423 151.308L106.924 143.984L104.261 139.008C102.593 135.89 101.393 132.544 100.699 129.077C100.143 126.295 99.9174 123.458 100.027 120.623L100.385 111.341L102.445 82.901Z" fill="#404040"/>
</svg>
