<svg width="1920" height="824" viewBox="0 0 1920 824" fill="none" xmlns="http://www.w3.org/2000/svg">
<g clip-path="url(#clip0_158_118)">
<circle cx="1564.85" cy="302.845" r="481.5" transform="rotate(24.0305 1564.85 302.845)" fill="#A5B5FF"/>
<circle cx="1588.85" cy="282.845" r="481.5" transform="rotate(24.0305 1588.85 282.845)" fill="#BBC7FF"/>
<circle cx="1601.19" cy="280.193" r="459" transform="rotate(24.0305 1601.19 280.193)" fill="#DAE0FC"/>
<circle cx="1059.23" cy="95.2331" r="60" transform="rotate(24.0305 1059.23 95.2331)" fill="#DAE0FC"/>
<circle cx="1048.23" cy="589.233" r="60" transform="rotate(24.0305 1048.23 589.233)" fill="#DAE0FC"/>
<circle cx="757.233" cy="340.233" r="60" transform="rotate(24.0305 757.233 340.233)" fill="#DAE0FC"/>
<circle cx="404.233" cy="167.233" r="60" transform="rotate(24.0305 404.233 167.233)" fill="#DAE0FC"/>
<circle cx="214.233" cy="569.233" r="60" transform="rotate(24.0305 214.233 569.233)" fill="#DAE0FC"/>
<path d="M1808.37 220.027V268.451H1807.14V267.935H1396.23V268.451H1395V220.027C1395.01 214.452 1397.14 209.107 1400.94 205.165C1404.74 201.223 1409.9 199.005 1415.27 199H1788.1C1793.47 199.005 1798.63 201.223 1802.43 205.165C1806.23 209.107 1808.36 214.452 1808.37 220.027Z" fill="#342AA1"/>
<path d="M1788.1 199H1415.27C1409.9 199.005 1404.74 201.223 1400.94 205.165C1397.14 209.107 1395.01 214.452 1395 220.027V496.558C1395.01 502.132 1397.14 507.477 1400.94 511.42C1404.74 515.362 1409.9 517.579 1415.27 517.584H1788.1C1793.47 517.579 1798.63 515.362 1802.43 511.42C1806.23 507.477 1808.36 502.132 1808.37 496.558V220.027C1808.36 214.452 1806.23 209.107 1802.43 205.165C1798.63 201.223 1793.47 199.005 1788.1 199ZM1807.14 496.558C1807.13 501.794 1805.13 506.814 1801.56 510.517C1797.99 514.22 1793.15 516.303 1788.1 516.31H1415.27C1410.22 516.303 1405.38 514.22 1401.81 510.517C1398.24 506.814 1396.23 501.794 1396.23 496.558V220.027C1396.23 214.79 1398.24 209.77 1401.81 206.067C1405.38 202.364 1410.22 200.281 1415.27 200.274H1788.1C1793.15 200.281 1797.99 202.364 1801.56 206.067C1805.13 209.77 1807.13 214.79 1807.14 220.027V496.558Z" fill="#3F3D56"/>
<path d="M1478.53 246.469C1485.32 246.469 1490.82 240.764 1490.82 233.726C1490.82 226.688 1485.32 220.982 1478.53 220.982C1471.75 220.982 1466.25 226.688 1466.25 233.726C1466.25 240.764 1471.75 246.469 1478.53 246.469Z" fill="white"/>
<path d="M1724.84 246.469C1731.62 246.469 1737.12 240.764 1737.12 233.726C1737.12 226.688 1731.62 220.982 1724.84 220.982C1718.05 220.982 1712.55 226.688 1712.55 233.726C1712.55 240.764 1718.05 246.469 1724.84 246.469Z" fill="white"/>
<path d="M1514.03 375.815H1440.95C1437.85 375.812 1434.88 374.534 1432.7 372.263C1430.51 369.992 1429.27 366.914 1429.27 363.702V327.872C1429.27 324.661 1430.51 321.582 1432.7 319.311C1434.88 317.04 1437.85 315.762 1440.95 315.759H1514.03C1517.12 315.762 1520.09 317.04 1522.28 319.311C1524.47 321.582 1525.7 324.661 1525.7 327.872V363.702C1525.7 366.914 1524.47 369.992 1522.28 372.263C1520.09 374.534 1517.12 375.812 1514.03 375.815Z" fill="#342AA1"/>
<path d="M1638.34 375.815H1565.27C1562.17 375.812 1559.2 374.534 1557.01 372.263C1554.82 369.992 1553.59 366.914 1553.59 363.702V327.872C1553.59 324.661 1554.82 321.582 1557.01 319.311C1559.2 317.04 1562.17 315.762 1565.27 315.759H1638.34C1641.44 315.762 1644.41 317.04 1646.6 319.311C1648.79 321.582 1650.02 324.661 1650.02 327.872V363.702C1650.02 366.914 1648.79 369.992 1646.6 372.263C1644.41 374.534 1641.44 375.812 1638.34 375.815Z" fill="#342AA1"/>
<path d="M1638.34 468.39H1565.27C1562.08 468.387 1559.02 467.07 1556.76 464.731C1554.51 462.391 1553.24 459.219 1553.23 455.91V420.08C1553.24 416.771 1554.51 413.598 1556.76 411.259C1559.02 408.919 1562.08 407.603 1565.27 407.599H1638.34C1641.53 407.603 1644.59 408.919 1646.85 411.259C1649.1 413.598 1650.37 416.771 1650.37 420.08V455.91C1650.37 459.219 1649.1 462.391 1646.85 464.731C1644.59 467.07 1641.53 468.386 1638.34 468.39Z" fill="#F2F2F2"/>
<path d="M1513.79 468.39H1440.71C1437.52 468.386 1434.46 467.07 1432.21 464.731C1429.95 462.391 1428.68 459.219 1428.68 455.91V420.08C1428.68 416.771 1429.95 413.598 1432.21 411.259C1434.46 408.919 1437.52 407.603 1440.71 407.599H1513.79C1516.98 407.603 1520.03 408.919 1522.29 411.259C1524.55 413.598 1525.81 416.771 1525.82 420.08V455.91C1525.81 459.219 1524.55 462.391 1522.29 464.731C1520.03 467.07 1516.98 468.387 1513.79 468.39Z" fill="#F2F2F2"/>
<path d="M1762.66 468.39H1689.58C1686.39 468.387 1683.33 467.07 1681.08 464.731C1678.82 462.391 1677.55 459.219 1677.55 455.91V420.08C1677.55 416.771 1678.82 413.598 1681.08 411.259C1683.33 408.919 1686.39 407.603 1689.58 407.599H1762.66C1765.85 407.603 1768.91 408.919 1771.16 411.259C1773.42 413.598 1774.69 416.771 1774.69 420.08V455.91C1774.69 459.219 1773.42 462.391 1771.16 464.731C1768.91 467.07 1765.85 468.387 1762.66 468.39Z" fill="#F2F2F2"/>
<path d="M1762.66 375.887H1689.58C1686.39 375.884 1683.33 374.567 1681.08 372.228C1678.82 369.888 1677.55 366.716 1677.55 363.407V327.577C1677.55 324.268 1678.82 321.096 1681.08 318.756C1683.33 316.416 1686.39 315.1 1689.58 315.096H1762.66C1765.85 315.1 1768.91 316.416 1771.16 318.756C1773.42 321.096 1774.69 324.268 1774.69 327.577V363.407C1774.69 366.716 1773.42 369.888 1771.16 372.228C1768.91 374.567 1765.85 375.884 1762.66 375.887Z" fill="#F2F2F2"/>
<path d="M1477.49 366.343C1488.43 366.343 1497.3 357.14 1497.3 345.787C1497.3 334.434 1488.43 325.231 1477.49 325.231C1466.54 325.231 1457.67 334.434 1457.67 345.787C1457.67 357.14 1466.54 366.343 1477.49 366.343Z" fill="white"/>
<path d="M1475.52 353.629C1475.08 353.63 1474.64 353.48 1474.29 353.203L1474.26 353.186L1469.61 349.487C1469.39 349.316 1469.21 349.102 1469.07 348.858C1468.94 348.614 1468.85 348.344 1468.81 348.065C1468.78 347.785 1468.8 347.501 1468.87 347.228C1468.94 346.956 1469.06 346.7 1469.22 346.477C1469.39 346.253 1469.59 346.065 1469.83 345.924C1470.06 345.783 1470.32 345.691 1470.59 345.654C1470.86 345.617 1471.14 345.636 1471.4 345.709C1471.66 345.782 1471.91 345.908 1472.12 346.08L1475.14 348.479L1482.27 338.835C1482.43 338.612 1482.64 338.424 1482.88 338.283C1483.11 338.142 1483.37 338.05 1483.64 338.014C1483.91 337.977 1484.18 337.995 1484.45 338.068C1484.71 338.141 1484.95 338.267 1485.17 338.438L1485.13 338.501L1485.17 338.439C1485.61 338.786 1485.89 339.297 1485.96 339.862C1486.03 340.426 1485.89 340.996 1485.55 341.448L1477.17 352.791C1476.98 353.053 1476.73 353.264 1476.44 353.409C1476.15 353.555 1475.84 353.63 1475.52 353.629Z" fill="#342AA1"/>
<path d="M1602.16 366.048C1613.1 366.048 1621.97 356.845 1621.97 345.492C1621.97 334.139 1613.1 324.936 1602.16 324.936C1591.21 324.936 1582.34 334.139 1582.34 345.492C1582.34 356.845 1591.21 366.048 1602.16 366.048Z" fill="white"/>
<path d="M1694.44 334L1695.9 340.5L1701 346H1684.97V340.5L1684 334.5L1694.44 334Z" fill="#FFB2BD"/>
<path d="M1600.19 353.333C1599.75 353.334 1599.31 353.185 1598.96 352.907L1598.94 352.89L1594.28 349.191C1593.84 348.845 1593.56 348.334 1593.49 347.769C1593.41 347.205 1593.56 346.634 1593.89 346.182C1594.23 345.731 1594.72 345.435 1595.27 345.36C1595.81 345.285 1596.36 345.438 1596.8 345.784L1599.81 348.183L1606.94 338.54C1607.1 338.316 1607.31 338.129 1607.55 337.988C1607.78 337.847 1608.04 337.755 1608.31 337.718C1608.58 337.681 1608.85 337.7 1609.12 337.773C1609.38 337.846 1609.62 337.971 1609.84 338.143L1609.8 338.205L1609.84 338.144C1610.28 338.49 1610.56 339.002 1610.63 339.566C1610.7 340.13 1610.56 340.701 1610.22 341.153L1601.84 352.496C1601.65 352.757 1601.4 352.969 1601.11 353.114C1600.83 353.259 1600.51 353.334 1600.19 353.333Z" fill="#342AA1"/>
<path d="M1736.08 442.493C1736.73 441.755 1737.22 440.877 1737.51 439.923C1737.8 438.968 1737.88 437.959 1737.75 436.967C1737.63 435.975 1737.29 435.025 1736.77 434.182C1736.25 433.339 1735.56 432.625 1734.74 432.09L1723.68 370.812L1710.23 375.987L1725.33 434.595C1724.55 436.075 1724.33 437.799 1724.7 439.44C1725.06 441.081 1726 442.525 1727.32 443.499C1728.65 444.472 1730.27 444.908 1731.89 444.722C1733.5 444.537 1734.99 443.744 1736.08 442.493Z" fill="#FFB3BD"/>
<path d="M1628.73 348.99C1628.76 349.37 1628.76 349.753 1628.74 350.134L1654.9 371.02L1662.32 367.86L1668.38 378.851L1655.77 385.769C1654.75 386.328 1653.59 386.529 1652.45 386.342C1651.31 386.155 1650.26 385.59 1649.46 384.732L1623.31 356.767C1621.93 357.091 1620.48 356.97 1619.16 356.42C1617.85 355.87 1616.72 354.918 1615.94 353.69C1615.16 352.461 1614.76 351.015 1614.79 349.544C1614.82 348.072 1615.28 346.645 1616.11 345.452C1616.94 344.259 1618.1 343.356 1619.44 342.865C1620.78 342.373 1622.23 342.315 1623.6 342.699C1624.97 343.083 1626.19 343.891 1627.11 345.015C1628.02 346.138 1628.59 347.525 1628.73 348.99Z" fill="#FFB3BD"/>
<path d="M1689.84 551.258H1682.31L1678.73 527.499L1689.84 527.5L1689.84 551.258Z" fill="#FFB3BD"/>
<path d="M1691.76 558.83L1667.48 558.829V558.511C1667.48 557.223 1667.73 555.948 1668.2 554.759C1668.68 553.569 1669.37 552.489 1670.25 551.578C1671.13 550.668 1672.17 549.946 1673.32 549.453C1674.46 548.961 1675.69 548.707 1676.93 548.707L1691.76 548.708L1691.76 558.83Z" fill="#2F2E41"/>
<path d="M1718.1 551.258H1710.57L1706.98 527.499L1718.1 527.5L1718.1 551.258Z" fill="#FFB3BD"/>
<path d="M1720.02 558.83L1695.74 558.829V558.511C1695.74 557.223 1695.98 555.948 1696.46 554.759C1696.93 553.569 1697.63 552.489 1698.5 551.578C1699.38 550.668 1700.42 549.946 1701.57 549.453C1702.72 548.961 1703.95 548.707 1705.19 548.707L1720.02 548.708L1720.02 558.83Z" fill="#2F2E41"/>
<path d="M1680.75 546.562C1680.06 546.563 1679.4 546.297 1678.89 545.817C1678.38 545.337 1678.06 544.678 1678 543.967L1671.44 452.413L1671.75 452.387L1716.91 448.537L1716.92 448.87L1720.51 543.712C1720.52 544.098 1720.46 544.482 1720.33 544.842C1720.2 545.202 1719.99 545.531 1719.74 545.809C1719.48 546.086 1719.17 546.307 1718.83 546.458C1718.49 546.609 1718.12 546.687 1717.75 546.687H1708.89C1708.23 546.69 1707.59 546.446 1707.09 545.999C1706.59 545.553 1706.26 544.934 1706.16 544.256L1694.14 467.639C1694.12 467.56 1694.08 467.488 1694.02 467.439C1693.96 467.389 1693.89 467.364 1693.81 467.37C1693.73 467.376 1693.66 467.411 1693.61 467.47C1693.56 467.528 1693.53 467.605 1693.52 467.685L1692.98 543.332C1692.97 544.063 1692.7 544.764 1692.21 545.292C1691.73 545.82 1691.06 546.136 1690.36 546.175L1680.9 546.558C1680.85 546.561 1680.8 546.562 1680.75 546.562Z" fill="#2F2E41"/>
<path d="M1688.46 340.299C1696.79 340.299 1703.54 333.292 1703.54 324.65C1703.54 316.007 1696.79 309 1688.46 309C1680.12 309 1673.37 316.007 1673.37 324.65C1673.37 333.292 1680.12 340.299 1688.46 340.299Z" fill="#FFB3BD"/>
<path d="M1691.38 458.252C1684.78 458.232 1678.22 457.301 1671.86 455.486C1671.25 455.301 1670.72 454.903 1670.36 454.359C1670 453.815 1669.83 453.159 1669.88 452.5C1671.91 420.837 1672.38 396.265 1668.11 379.264C1666.29 372.018 1667.12 364.387 1670.38 358.327C1675.29 349.207 1684.31 343.656 1693.93 343.848C1694.39 343.857 1694.85 343.874 1695.32 343.899C1709.93 344.679 1721.3 358.382 1720.69 374.446L1717.75 451.014C1717.74 451.572 1717.57 452.115 1717.26 452.574C1716.95 453.032 1716.52 453.386 1716.02 453.59C1708.14 456.665 1699.79 458.244 1691.38 458.252Z" fill="#3F3D56"/>
<path d="M1670.6 385.143L1659.3 370.778C1658.97 370.369 1658.74 369.894 1658.61 369.383C1658.49 368.873 1658.46 368.34 1658.55 367.82C1658.64 367.301 1658.84 366.807 1659.13 366.373C1659.41 365.938 1659.79 365.574 1660.23 365.304L1675.53 355.842C1677.56 354.147 1680.15 353.354 1682.74 353.637C1685.32 353.921 1687.7 355.257 1689.34 357.353C1690.98 359.45 1691.75 362.135 1691.48 364.82C1691.21 367.505 1689.93 369.971 1687.92 371.677L1675.95 385.295C1675.61 385.685 1675.19 385.994 1674.72 386.2C1674.25 386.407 1673.75 386.506 1673.24 386.491C1672.73 386.477 1672.23 386.349 1671.78 386.116C1671.32 385.884 1670.92 385.552 1670.6 385.143Z" fill="#3F3D56"/>
<path d="M1706.14 383.34C1705.68 383.125 1705.27 382.808 1704.93 382.411C1704.6 382.015 1704.35 381.548 1704.2 381.043L1699.11 363.39C1698.01 360.945 1697.89 358.146 1698.77 355.607C1699.65 353.067 1701.47 350.994 1703.82 349.842C1706.17 348.691 1708.87 348.555 1711.32 349.464C1713.77 350.373 1715.78 352.253 1716.89 354.691L1726.73 370.103C1727.01 370.543 1727.2 371.041 1727.27 371.562C1727.35 372.083 1727.32 372.616 1727.19 373.124C1727.05 373.631 1726.81 374.103 1726.48 374.505C1726.15 374.907 1725.74 375.231 1725.28 375.455L1709.09 383.315C1708.63 383.539 1708.13 383.657 1707.62 383.661C1707.11 383.666 1706.61 383.556 1706.14 383.34Z" fill="#3F3D56"/>
<path d="M1695.91 337.397L1684.73 334.741C1683.58 334.468 1682.19 333.945 1682.03 332.729C1681.81 331.094 1684.08 329.956 1683.87 328.321C1683.67 326.737 1681.6 326.533 1680.13 326.065C1678.76 325.566 1677.63 324.533 1676.98 323.184C1676.33 321.835 1676.21 320.277 1676.65 318.839C1675.05 321.169 1671.41 321.368 1669.35 319.481C1667.28 317.594 1666.88 314.17 1668.12 311.62C1668.8 310.367 1669.74 309.297 1670.89 308.495C1672.03 307.694 1673.34 307.183 1674.71 307.006C1677.47 306.682 1680.25 307.221 1682.71 308.553C1682.87 306.748 1685.05 306.016 1686.8 306C1690.43 306.044 1693.95 307.261 1696.89 309.482C1699.82 311.703 1702.01 314.817 1703.16 318.391C1705.3 325.56 1703.87 333.419 1697.87 337.614L1695.91 337.397Z" fill="#231F20"/>
<path d="M1808.55 559H1574.53C1574.37 559 1574.21 558.933 1574.09 558.813C1573.98 558.694 1573.91 558.532 1573.91 558.363C1573.91 558.194 1573.98 558.032 1574.09 557.912C1574.21 557.793 1574.37 557.726 1574.53 557.726H1808.55C1808.71 557.726 1808.86 557.793 1808.98 557.912C1809.09 558.032 1809.16 558.194 1809.16 558.363C1809.16 558.532 1809.09 558.694 1808.98 558.813C1808.86 558.933 1808.71 559 1808.55 559Z" fill="#3F3D56"/>
</g>
<defs>
<clipPath id="clip0_158_118">
<rect width="1920" height="824" fill="white"/>
</clipPath>
</defs>
</svg>
