<svg width="300" height="293" viewBox="0 0 300 293" fill="none" xmlns="http://www.w3.org/2000/svg">
<rect width="300" height="293" rx="10" fill="#DFE5FF"/>
<rect x="14" y="11" width="271" height="271" rx="10" fill="#F0F2FD"/>
<mask id="mask0_117_52" style="mask-type:alpha" maskUnits="userSpaceOnUse" x="76" y="38" width="147" height="147">
<rect x="76" y="38" width="147" height="147" fill="#D9D9D9"/>
</mask>
<g mask="url(#mask0_117_52)">
<path d="M149.501 111.5C142.763 111.5 136.996 109.101 132.198 104.303C127.4 99.5054 125.001 93.7377 125.001 87.0002C125.001 80.2627 127.4 74.495 132.198 69.6971C136.996 64.8991 142.763 62.5002 149.501 62.5002C156.238 62.5002 162.006 64.8991 166.804 69.6971C171.602 74.495 174.001 80.2627 174.001 87.0002C174.001 93.7377 171.602 99.5054 166.804 104.303C162.006 109.101 156.238 111.5 149.501 111.5ZM100.501 160.5V143.35C100.501 139.879 101.394 136.689 103.18 133.78C104.967 130.871 107.34 128.65 110.301 127.119C116.63 123.954 123.061 121.581 129.594 119.999C136.128 118.416 142.763 117.625 149.501 117.625C156.238 117.625 162.874 118.416 169.407 119.999C175.94 121.581 182.372 123.954 188.701 127.119C191.661 128.65 194.035 130.871 195.821 133.78C197.608 136.689 198.501 139.879 198.501 143.35V160.5H100.501Z" fill="#1E185F"/>
</g>
</svg>
