<svg width="300" height="293" viewBox="0 0 300 293" fill="none" xmlns="http://www.w3.org/2000/svg">
<rect width="300" height="293" rx="10" fill="#DFE5FF"/>
<rect x="14" y="11" width="271" height="271" rx="10" fill="#F0F2FD"/>
<path d="M108.456 69.8242C106.361 67.9335 105.6 64.973 106.523 62.3061V62.3061L107.17 60.7186C107.968 58.7578 109.209 57.0078 110.795 55.6049L112.294 54.2785C112.617 53.9928 112.992 53.7715 113.398 53.6265V53.6265C114.49 53.2364 115.706 53.433 116.619 54.1472L124.458 60.2757L153.899 86.3327L163.036 94.962L167.28 98.4984C167.833 98.9596 168.339 99.4755 168.789 100.038V100.038L171.835 100.207V100.207C172.276 100.428 172.645 100.772 172.897 101.197L175.219 105.114L176.24 106.496C177.471 108.161 178.928 109.646 180.569 110.909V110.909C181.849 111.893 183.232 112.735 184.694 113.421L187.145 114.57C187.652 114.808 188.186 114.986 188.734 115.102V115.102C190.285 115.428 191.899 115.24 193.333 114.565L194 114.251V115.303C194 115.615 193.95 115.924 193.851 116.22V116.22C193.621 116.912 193.137 117.492 192.498 117.843L191.29 118.508C190.511 118.936 189.651 119.198 188.765 119.277L187.176 119.418C184.138 119.688 181.095 118.96 178.509 117.344L177.903 116.965C176.781 116.264 175.298 116.773 174.843 118.015L170.748 129.193C169.896 131.519 168.769 133.734 167.39 135.791L159.144 148.091L152.925 156.421C150.771 159.306 148.131 161.793 145.123 163.772L143.24 165.011L139.087 167.318C137.808 168.029 136.397 168.469 134.941 168.611L134.225 168.681C131.67 168.93 129.129 168.083 127.234 166.351V166.351C125.358 164.635 124.289 162.209 124.289 159.667V157.327C124.289 155.924 124.592 154.538 125.176 153.262V153.262C125.816 151.865 126.778 150.639 127.982 149.684L147.261 134.394C149.532 132.593 151.539 130.482 153.224 128.124L159.144 119.835L162.048 114.911C162.699 113.807 163.104 112.576 163.234 111.302L163.284 110.815C163.553 108.2 162.513 105.622 160.507 103.924L155.645 99.8103C155.232 99.4608 154.62 99.4863 154.238 99.8688V99.8688L148.316 105.114L139.686 98.0076L108.456 69.8242Z" fill="#404040"/>
</svg>
