<svg width="300" height="249" viewBox="0 0 300 249" fill="none" xmlns="http://www.w3.org/2000/svg">
<rect y="77" width="300" height="170" rx="10" fill="#DAE0FC"/>
<path d="M73.4028 103.395L71.5991 106.188L95.6833 121.745L97.487 118.952L73.4028 103.395Z" fill="#2F2E41"/>
<path d="M98.6913 121.701C101.68 117.074 103.165 112.718 102.008 111.971C100.851 111.224 97.4912 114.369 94.5027 118.995C91.5142 123.622 90.0292 127.978 91.1858 128.725C92.3425 129.472 95.7028 126.327 98.6913 121.701Z" fill="#2F2E41"/>
<path d="M74.5997 106.144C77.5881 101.518 79.0732 97.1615 77.9165 96.4144C76.7599 95.6672 73.3996 98.8121 70.4111 103.439C67.4226 108.065 65.9376 112.421 67.0943 113.169C68.2509 113.916 71.6112 110.771 74.5997 106.144Z" fill="#2F2E41"/>
<path d="M91.4691 97.6908C91.4691 97.6908 72.9536 115.836 80.7301 118.058C88.5066 120.28 97.394 101.394 97.394 101.394L91.4691 97.6908Z" fill="#FBBEBE"/>
<path d="M109.974 158.792L107.752 169.16L124.416 169.901L121.824 158.792H109.974Z" fill="#FBBEBE"/>
<path d="M162.571 222.855L160.349 233.224L177.013 233.964L174.42 222.855H162.571Z" fill="#FBBEBE"/>
<path d="M133.305 89.5431L134.786 95.468C134.786 95.468 93.6822 87.3212 95.9041 108.059C98.1259 128.796 107.754 148.793 107.754 148.793C107.754 148.793 107.013 155.458 108.495 156.569C109.976 157.68 108.495 161.383 108.495 161.383C108.495 161.383 122.196 163.235 122.566 159.902C122.764 157.674 122.64 155.429 122.196 153.236C122.196 153.236 122.937 153.236 122.196 149.533C121.455 145.83 118.464 115.966 116.242 111.892C116.242 111.892 135.897 126.944 146.266 125.093C146.266 125.093 144.785 139.905 150.71 159.531C156.635 179.158 156.635 181.38 156.635 181.38C156.635 181.38 163.671 218.781 161.819 223.225L161.449 225.076H175.15C175.15 225.076 174.039 205.45 175.15 202.858C176.261 200.265 176.261 178.047 169.966 166.938C165.508 159.07 166.338 136.26 168.777 127.243C170.824 119.672 171.342 113.844 170.141 106.093C168.857 97.8037 165.024 93.4709 160.338 89.5431H133.305Z" fill="#2F2E41"/>
<path d="M144.227 33.8108C151.59 33.8108 157.559 27.8423 157.559 20.4797C157.559 13.1171 151.59 7.14856 144.227 7.14856C136.865 7.14856 130.896 13.1171 130.896 20.4797C130.896 27.8423 136.865 33.8108 144.227 33.8108Z" fill="#FBBEBE"/>
<path d="M140.721 29.9235C140.721 29.9235 144.794 41.7734 144.424 43.9953C144.053 46.2171 156.274 39.5516 156.274 39.5516C156.274 39.5516 151.46 27.7017 152.941 24.3689L140.721 29.9235Z" fill="#FBBEBE"/>
<path d="M155.522 35.4784L142.561 40.6627L143.302 45.1064C143.302 45.1064 142.191 46.5877 142.561 47.3283C142.931 48.0689 137.747 51.0314 138.488 52.1423C139.228 53.2532 134.044 57.6969 134.414 58.8079C134.784 59.9188 122.564 66.5844 129.23 79.5452C129.23 79.5452 132.686 84.0379 132.253 89.3508C132.238 89.5375 132.217 89.7252 132.192 89.9138C131.452 95.4685 160.336 89.1732 160.336 89.1732V82.878C160.336 82.878 162.928 81.767 162.558 76.953C162.187 72.139 159.965 74.3608 162.558 71.7687C165.15 69.1765 165.15 69.5468 164.78 67.325C164.632 66.4377 164.602 63.2475 164.619 59.7351C164.653 52.3136 162.236 45.0886 157.744 39.1815L155.522 35.4784Z" fill="#ECEBFF"/>
<path d="M148.496 45.1065L124.426 70.2875L89.2466 98.0607L97.0231 104.356L161.827 61.0297C161.827 61.0297 167.382 37.33 148.496 45.1065Z" fill="#ECEBFF"/>
<path d="M111.084 164.347C111.084 164.347 108.492 159.903 106.64 161.384L93.6797 171.753C93.6797 171.753 70.7205 178.418 92.9391 183.603C92.9391 183.603 105.159 185.454 107.751 183.603C110.344 181.751 114.417 182.121 115.528 182.862C116.639 183.603 130.711 182.492 130.711 179.529C130.711 176.567 122.95 163.619 122.95 163.619C122.95 163.619 118.49 168.79 111.084 164.347Z" fill="#2F2E41"/>
<path d="M163.669 228.41C163.669 228.41 161.077 223.967 159.226 225.448L146.265 235.817C146.265 235.817 123.306 242.482 145.524 247.666C145.524 247.666 157.744 249.518 160.337 247.666C162.929 245.815 167.002 246.185 168.113 246.926C169.224 247.667 183.296 246.556 183.296 243.593C183.296 240.631 175.535 227.683 175.535 227.683C175.535 227.683 171.076 232.854 163.669 228.41Z" fill="#2F2E41"/>
<path d="M128.259 15.1937C128.259 15.1937 130.513 -4.62022 149.791 1.00561C149.791 1.00561 163.43 -1.76841 168.247 15.265L173.136 33.1232L170.898 31.9602L169.909 34.2371L166.337 35.215L164.742 32.1961L164.071 35.9123L139.405 40.8991C139.405 40.8991 147.747 31.3681 147.688 17.409L145.231 20.1073L128.259 15.1937Z" fill="#2F2E41"/>
<path d="M232.512 232.114H203.84V235.439H232.512V232.114Z" fill="#2F2E41"/>
<path d="M232.507 243.749C233.884 243.749 235 239.285 235 233.777C235 228.269 233.884 223.804 232.507 223.804C231.13 223.804 230.014 228.269 230.014 233.777C230.014 239.285 231.13 243.749 232.507 243.749Z" fill="#2F2E41"/>
<path d="M203.842 243.749C205.219 243.749 206.335 239.285 206.335 233.777C206.335 228.269 205.219 223.804 203.842 223.804C202.465 223.804 201.349 228.269 201.349 233.777C201.349 239.285 202.465 243.749 203.842 243.749Z" fill="#2F2E41"/>
</svg>
