<svg width="300" height="293" viewBox="0 0 300 293" fill="none" xmlns="http://www.w3.org/2000/svg">
<rect width="300" height="293" rx="10" fill="#DFE5FF"/>
<rect x="15" y="12" width="271" height="271" rx="10" fill="#F0F2FD"/>
<path d="M117.534 54.2553C116.146 54.5581 114.884 55.3402 114.052 56.3998C112.69 58.2163 112.69 58.0901 112.69 78.6265V97.5986L108.476 97.6996C104.793 97.7752 104.086 97.8509 103.052 98.3303C101.463 99.0619 99.6714 100.752 98.8641 102.316L98.1829 103.578L98.0568 116.066C97.9811 122.928 97.9811 135.82 98.0568 144.701L98.1829 160.848L98.8136 162.109C99.6462 163.85 101.513 165.616 103.279 166.322L104.742 166.903L125.304 166.978C146.749 167.054 148.389 166.978 150.356 165.994C151.921 165.187 153.687 163.219 154.292 161.579C154.822 160.192 154.822 159.965 154.822 132.389C154.822 117.101 154.721 104.234 154.595 103.83C153.939 101.534 152.072 99.3394 149.902 98.3555C148.792 97.8509 148.161 97.7752 144.554 97.6996L140.441 97.5986V78.5256C140.441 66.1382 140.34 59.0993 140.189 58.4938C139.785 57.081 138.448 55.4915 137.035 54.7851L135.799 54.1292L127.196 54.0787C122.478 54.0535 118.139 54.1292 117.534 54.2553ZM136.43 57.4594C137.969 58.7713 137.918 58.0144 137.918 78.7274V97.6491L126.641 97.5986L115.339 97.523L115.263 79.4843C115.212 69.5693 115.263 60.8401 115.339 60.1084C115.515 58.7209 116.348 57.4342 117.332 57.0305C117.634 56.9044 121.848 56.8035 126.742 56.8035L135.597 56.7782L136.43 57.4594ZM149.196 100.853C150.483 101.534 151.618 102.922 152.021 104.183C152.223 104.865 152.299 109.33 152.299 118.942V132.717L150.937 133.6C144.453 137.914 135.673 136.325 122.428 128.428C120.485 127.268 118.215 126.032 117.382 125.653C112.639 123.509 107.139 123.66 101.034 126.032C100.605 126.208 100.58 125.603 100.58 115.536V104.839L101.185 103.553C101.841 102.165 103.052 101.08 104.541 100.525C105.323 100.248 109.435 100.197 126.818 100.248L148.136 100.298L149.196 100.853ZM113.27 127.041C115.465 127.495 116.751 128.1 121.141 130.674C130.88 136.426 137.717 138.747 143.847 138.444C146.471 138.318 149.549 137.486 151.189 136.476C151.618 136.224 152.047 135.997 152.148 135.997C152.223 135.997 152.299 141.371 152.299 147.905C152.299 161.226 152.324 160.949 150.508 162.664C148.742 164.329 149.978 164.254 126.389 164.254C106.231 164.254 104.944 164.228 103.986 163.774C102.699 163.194 101.185 161.529 100.857 160.293C100.681 159.662 100.58 154.111 100.58 144.272V129.185L101.816 128.555C102.951 127.974 105.827 127.091 107.391 126.839C108.83 126.587 111.655 126.688 113.27 127.041Z" fill="#404040"/>
<path d="M113 61C113 58.2386 115.239 56 118 56H135.51C137.699 56 139.482 57.7604 139.51 59.9498L140 99H113V61Z" fill="#404040"/>
<path d="M172.381 60.1337C172.028 60.6383 172.154 61.4204 173.845 69.1404C174.854 73.7826 175.888 78.021 176.14 78.5508C176.594 79.5348 178.159 80.998 178.714 80.998C178.966 80.998 179.042 83.5462 179.042 93.4864V105.975H172.608C166.452 105.975 166.15 106 165.67 106.479C165.216 106.933 165.166 107.211 165.292 108.447C165.368 109.229 166.326 121.49 167.436 135.669C169.657 164.43 169.455 163.017 171.574 164.96C173.617 166.827 174.021 166.903 183.709 166.903C190.117 166.903 192.514 166.827 193.22 166.575C195.34 165.818 197.08 163.976 197.686 161.832C197.963 160.949 202 110.062 202 107.741C202 105.975 202 105.975 194.785 105.975H188.376V93.5368V81.099L189.386 80.1403C189.966 79.6104 190.571 78.8788 190.748 78.5004C191.152 77.7687 194.684 61.7988 194.684 60.7897C194.684 60.4365 194.557 60.0328 194.381 59.8562C194.154 59.6291 191.379 59.5534 183.406 59.5534H172.734L172.381 60.1337ZM179.471 70.4019C179.773 74.8926 179.975 78.6517 179.899 78.7022C179.824 78.7779 179.445 78.5004 179.042 78.0715C178.335 77.3903 178.159 76.7848 176.796 70.528C175.964 66.7689 175.232 63.3378 175.131 62.8837L174.955 62.0511L176.948 62.1268L178.916 62.2025L179.471 70.4019ZM185.273 63.3882C185.198 64.1199 184.92 67.9294 184.693 71.8399L184.239 78.9797H183.406C182.675 78.9797 182.574 78.904 182.574 78.2733C182.574 77.8949 182.347 74.4133 182.069 70.528C181.792 66.6428 181.565 63.1612 181.565 62.7575V62.0763H183.482H185.425L185.273 63.3882ZM191.782 62.6314C191.707 62.9593 190.975 66.3148 190.142 70.1244C189.31 73.9339 188.452 77.3146 188.25 77.6174C188.048 77.9453 187.645 78.3238 187.367 78.4751C186.736 78.8031 186.736 79.4591 187.367 70.528C187.645 66.6428 187.872 63.1612 187.872 62.7575V62.0763H189.89C191.858 62.0763 191.908 62.1016 191.782 62.6314ZM185.853 93.7891V105.975H183.709H181.565V93.9153C181.565 87.28 181.64 81.7549 181.741 81.654C181.842 81.5531 182.826 81.5026 183.886 81.5278L185.853 81.6035V93.7891ZM199.301 109.809C199.25 110.415 198.367 121.894 197.333 135.366C196.298 148.813 195.365 160.267 195.289 160.797C195.113 161.882 194.002 163.32 192.892 163.9C192.312 164.178 190.622 164.254 183.659 164.254C175.257 164.254 175.106 164.228 174.122 163.673C173.542 163.345 172.886 162.664 172.558 162.084C172.028 161.125 171.851 159.46 169.959 135.013C168.849 120.683 167.941 108.926 167.941 108.851C167.941 108.8 175.03 108.75 183.684 108.75H199.427L199.301 109.809Z" fill="#404040"/>
<rect x="180" y="81" width="8" height="25" fill="#404040"/>
<path d="M100 126.5L108.504 125.437C110.794 125.151 113.118 125.479 115.238 126.388L119 128L129.444 132.849C131.806 133.946 134.29 134.758 136.844 135.269L137.518 135.404C141.14 136.128 144.866 136.161 148.5 135.5V135.5L153 133.5V157L152 164L126.5 166H104.5L100 160.5V126.5Z" fill="#404040"/>
</svg>
