<svg width="300" height="293" viewBox="0 0 300 293" fill="none" xmlns="http://www.w3.org/2000/svg">
<rect width="300" height="293" rx="10" fill="#DFE5FF"/>
<rect x="15" y="12" width="271" height="271" rx="10" fill="#F0F2FD"/>
<path d="M173.613 40.7602C173.069 41.1591 170.619 46.2226 169.53 49.1073C167.671 54.14 166.219 60.6459 165.72 66.2003C165.607 67.612 165.493 74.2405 165.493 80.9305C165.493 91.2109 165.448 93.1749 165.153 93.7272C164.972 94.0955 164.133 94.8934 163.293 95.5378C152.77 103.394 145.263 115.546 142.269 129.509C141.611 132.547 141.724 133.407 142.836 134.02C144.355 134.88 145.058 133.713 146.329 128.496C148.982 117.418 156.104 106.524 165.017 99.8648C165.947 99.1897 167.104 98.0849 167.557 97.4098C169.054 95.3537 169.077 94.9241 169.19 80.0098C169.281 68.2257 169.349 66.2617 169.78 63.2543C170.302 59.4183 171.368 54.7538 172.184 52.6977L172.728 51.3168L172.751 58.7125C172.751 65.8628 172.774 66.139 173.273 67.0903C173.545 67.6427 175.155 69.4839 176.834 71.2331L179.895 74.3633L179.963 80.1633L180.009 85.9939H177.242C174.18 86.0246 173.069 86.4543 172.887 87.7738C172.819 88.1421 172.728 90.0447 172.683 91.978C172.615 95.2003 172.547 95.722 171.912 97.5939C170.891 100.479 169.462 102.443 166.832 104.437C159.551 109.961 153.609 118.891 150.434 129.08C149.164 133.192 148.415 136.598 147.78 141.416C147.122 146.572 147.258 151.482 148.347 160.228C148.801 163.726 149.164 167.071 149.164 167.593C149.164 169.004 148.279 171.183 147.372 171.981C146.941 172.38 146.533 172.687 146.442 172.687C146.283 172.687 144.628 160.074 143.97 153.845C143.516 149.548 143.335 149.057 142.065 149.057C141.18 149.057 140.568 149.548 140.296 150.5C140.001 151.543 140.454 156.269 141.929 167.47C143.017 175.725 143.108 176.277 143.72 177.106C144.287 177.904 144.559 178.027 145.535 177.996C147.122 177.965 148.982 176.676 150.66 174.405C151.885 172.748 152.067 172.288 152.407 170.477C152.928 167.654 152.906 166.58 152.112 160.657C151.726 157.834 151.318 154.09 151.182 152.372C150.91 148.658 151.114 143.472 151.59 142.153C152.951 138.531 155.559 136.199 162.658 132.271C165.72 130.583 169.236 128.22 170.574 126.993C171.889 125.765 173.568 123.464 174.293 121.929C175.79 118.676 176.788 112.355 176.085 110.483C175.155 108.089 172.751 109.347 172.751 112.232C172.751 115.516 171.481 119.137 169.462 121.684C167.784 123.832 165.403 125.55 160.027 128.496C157.873 129.693 155.469 131.136 154.698 131.719L153.291 132.762L153.632 131.627C155.219 126.471 157.827 121.101 160.617 117.203C162.749 114.196 164.722 112.079 169.122 108.181C170.574 106.892 172.297 105.112 172.978 104.192C175.132 101.338 176.357 97.195 176.38 92.8066V91.0574H178.194H180.009V92.4997C180.031 95.4151 181.392 97.8701 184.091 99.8648C184.908 100.448 186.699 101.952 188.06 103.21C190.895 105.788 191.462 105.972 192.347 104.529C193.027 103.455 193.05 103.271 192.619 102.136C192.097 100.785 191.009 99.65 187.425 96.7653C185.588 95.2923 184 93.8193 183.864 93.5124C183.728 93.1749 183.638 88.7865 183.638 82.25C183.638 65.4638 182.98 59.1422 180.417 51.2247C179.396 48.0946 176.176 41.2512 175.495 40.7295C174.951 40.3306 174.112 40.3612 173.613 40.7602ZM178.308 57.6998C179.056 60.7379 179.782 65.3718 179.782 67.1517V68.0416L178.081 66.2924L176.403 64.5125V58.0681V51.6237L176.97 53.0967C177.287 53.8945 177.877 55.9813 178.308 57.6998Z" fill="#404040"/>
<path d="M144.308 128.003V128.003C142.324 135.24 141.511 142.748 141.9 150.242L142.077 153.657" stroke="#404040" stroke-width="3"/>
<path d="M202.308 120.752L200.946 118.179C198.512 113.582 195.704 109.192 192.551 105.054L188.365 99.5601" stroke="#404040" stroke-width="3"/>
<path d="M118.273 68.4103C117.887 68.9626 116.958 70.9266 116.186 72.7986L114.803 76.1742L114.69 83.8769L114.576 91.6102L106.978 101.277C102.805 106.586 99.0175 111.619 98.5412 112.416C95.6835 117.572 93.8918 123.495 93.1433 130.4C92.9392 132.333 92.9392 132.916 93.234 133.837C93.665 135.217 94.1639 135.402 97.0897 135.156C102.465 134.696 108.498 131.566 112.694 126.993L114.644 124.876L114.735 128.804C114.803 132.149 114.871 132.824 115.234 133.376C115.846 134.297 117.048 134.235 117.774 133.253L118.341 132.486L118.296 126.318L118.273 120.15L126.166 110.084C134.58 99.4049 135.351 98.2081 136.168 94.4641C137.619 87.6822 133.673 80.3478 128.23 79.7954C125.213 79.4885 122.9 80.8695 119.861 84.8589L118.318 86.8536V82.3425V77.8314L119.248 75.6219C119.747 74.3944 120.201 73.3817 120.246 73.3203C120.269 73.2589 120.949 73.5351 121.743 73.9034C123.784 74.8854 127.345 74.8854 129.409 73.9034C130.588 73.351 130.906 73.2896 131.065 73.6272C131.155 73.842 131.722 75.1616 132.289 76.5425C133.355 79.1816 133.764 79.7033 134.762 79.7033C135.533 79.7033 136.463 78.4145 136.463 77.4018C136.463 76.3891 133.492 69.0547 132.698 68.1034C131.927 67.1827 131.518 67.2441 129.364 68.533C126.619 70.1901 125.191 70.2515 122.401 68.8706C119.067 67.2441 119.09 67.2441 118.273 68.4103ZM129.795 85.1044C130.815 85.7795 132.017 87.6822 132.335 89.1859C132.743 91.0271 132.675 93.6663 132.176 95.0165C131.927 95.6917 129.5 99.0366 126.37 103.057C123.421 106.831 119.407 111.987 117.457 114.503C113.488 119.597 110.652 122.912 108.543 124.845C105.549 127.607 101.671 129.54 97.9742 130.185L96.7722 130.4L96.9082 129.356C97.6113 124.446 99.4257 118.861 101.376 115.608C102.034 114.503 106.343 108.795 110.947 102.903C123.648 86.7001 124.261 85.9943 125.621 85.2578C127.096 84.5213 128.751 84.4599 129.795 85.1044Z" fill="#404040"/>
<path d="M126.324 89.9832C125.258 90.9959 125.485 93.4509 126.687 94.126C128.502 95.1387 130.021 92.1313 128.638 90.29C128.003 89.4001 127.05 89.308 126.324 89.9832Z" fill="#404040"/>
<path d="M173.432 75.4073C172.797 76.2665 172.615 77.5247 173.001 78.4454C173.681 80.0718 175.428 80.0718 176.04 78.4761C176.516 77.2179 176.471 76.42 175.813 75.5607C175.133 74.6094 174.067 74.548 173.432 75.4073Z" fill="#404040"/>
<path d="M179.261 104.192C178.807 104.867 178.762 106.709 179.17 107.353C179.306 107.629 180.191 108.396 181.075 109.133C189.149 115.485 195.477 127.361 197.36 139.759C197.904 143.227 198.199 148.29 198.04 150.899C197.949 152.157 197.518 156.024 197.088 159.491C195.863 169.219 196.158 171.644 198.993 175.142C201.828 178.641 205.706 178.763 206.182 175.357C206.432 173.577 207.793 162.836 208.269 158.724C209.607 147.523 209.131 138.961 206.659 128.62C204.731 120.579 202.281 114.994 200.694 114.994C199.242 114.994 198.652 117.848 199.718 119.843C200.58 121.5 202.644 127.607 203.461 130.952C205.298 138.501 205.751 144.976 205.071 153.814C204.776 157.527 202.984 172.319 202.78 172.657C202.553 173.055 200.875 170.999 200.444 169.864C199.809 168.084 199.832 166.979 200.671 160.842C202.1 150.162 202.032 144.332 200.422 136.015C198.244 124.814 193.255 114.902 186.133 107.721C182.459 104.008 180.168 102.842 179.261 104.192Z" fill="#404040"/>
<path d="M133.854 107.076C132.834 107.813 132.834 107.751 132.834 120.702C132.834 134.235 132.72 135.953 131.496 140.863C131.11 142.336 130.384 144.638 129.863 145.958C128.661 148.996 125.962 154.121 125.553 154.121C125.395 154.121 124.692 153.077 124.034 151.819C122.151 148.228 121.834 147.83 120.949 147.83C120.087 147.83 119.226 148.934 119.226 150.039C119.226 151.819 123.852 160.197 125.054 160.596C125.984 160.933 126.778 160.166 128.456 157.343C133.219 149.456 135.329 143.318 136.122 135.033C136.553 130.706 136.621 109.838 136.213 108.273C135.828 106.831 134.875 106.309 133.854 107.076Z" fill="#404040"/>
<path d="M116.423 130.791V130.791C117.164 137.092 118.596 143.293 120.692 149.282L121.442 151.425" stroke="#404040" stroke-width="3"/>
</svg>
